<svg xmlns="http://www.w3.org/2000/svg" xmlns:xlink="http://www.w3.org/1999/xlink" width="6912" zoomAndPan="magnify" viewBox="0 0 5184 2592.000001" height="3456" preserveAspectRatio="xMidYMid meet" version="1.0"><defs><g/><clipPath id="id1"><path d="M 1060 498.105469 L 1854.734375 498.105469 L 1854.734375 2092.738281 L 1060 2092.738281 Z M 1060 498.105469 " clip-rule="nonzero"/></clipPath><clipPath id="id2"><path d="M 260.101562 763 L 1523 763 L 1523 2092.738281 L 260.101562 2092.738281 Z M 260.101562 763 " clip-rule="nonzero"/></clipPath><clipPath id="id3"><path d="M 366 1608 L 524 1608 L 524 1989.179688 L 366 1989.179688 Z M 366 1608 " clip-rule="nonzero"/></clipPath><clipPath id="id4"><path d="M 364 1798 L 517 1798 L 517 1989.179688 L 364 1989.179688 Z M 364 1798 " clip-rule="nonzero"/></clipPath></defs><g clip-path="url(#id1)"><path fill="#ff914d" d="M 1655.40625 498.105469 L 1256.746094 498.105469 C 1158 498.105469 1076.632812 570.042969 1060.785156 664.226562 L 1456.074219 664.226562 C 1547.707031 664.226562 1622.175781 738.695312 1622.175781 830.304688 C 1622.175781 921.9375 1547.707031 996.425781 1456.074219 996.425781 L 1071.230469 996.425781 C 1104.519531 1124.835938 1199.261719 1228.40625 1323.183594 1272.257812 L 1323.183594 1494.75 L 1456.074219 1561.1875 L 1456.074219 1694.082031 L 1323.183594 1694.082031 L 1323.183594 1826.972656 L 1456.074219 1826.972656 L 1456.074219 1959.847656 L 1323.183594 1959.847656 L 1323.183594 2092.738281 L 1588.96875 2092.738281 L 1588.96875 1272.257812 C 1743.726562 1217.425781 1854.734375 1070.257812 1854.734375 896.761719 L 1854.734375 697.433594 C 1854.734375 587.34375 1765.453125 498.105469 1655.40625 498.105469 Z M 1655.40625 498.105469 " fill-opacity="1" fill-rule="nonzero"/></g><g clip-path="url(#id2)"><path fill="#ff914d" d="M 1456.074219 763.890625 L 858.085938 763.890625 C 711.320312 763.890625 592.320312 882.890625 592.320312 1029.65625 L 592.320312 1096.09375 L 525.867188 1096.09375 C 379.097656 1096.09375 260.101562 1215.171875 260.101562 1361.859375 L 260.101562 1826.972656 C 260.101562 1973.660156 379.097656 2092.738281 525.867188 2092.738281 L 791.652344 2092.738281 C 938.417969 2092.738281 1057.417969 1973.660156 1057.417969 1826.972656 L 1057.417969 1361.859375 C 1057.417969 1215.171875 938.417969 1096.09375 791.652344 1096.09375 L 725.195312 1096.09375 L 725.195312 1029.65625 C 725.195312 956.261719 784.695312 896.761719 858.085938 896.761719 L 1456.074219 896.761719 C 1492.613281 896.761719 1522.511719 866.863281 1522.511719 830.304688 C 1522.511719 793.789062 1492.613281 763.890625 1456.074219 763.890625 Z M 1456.074219 763.890625 " fill-opacity="1" fill-rule="nonzero"/></g><path fill="#b55623" d="M 658.039062 1721.792969 C 652.453125 1713.5 642.5625 1713.179688 633.945312 1715.574219 C 621.5 1718.921875 613.84375 1715.253906 602.515625 1709.988281 C 596.933594 1707.4375 591.667969 1704.566406 586.082031 1702.175781 C 581.296875 1699.941406 574.117188 1698.984375 570.289062 1695.316406 C 572.203125 1689.253906 585.285156 1683.191406 590.390625 1679.84375 C 603.152344 1671.070312 613.523438 1662.296875 622.140625 1649.058594 C 628.839844 1638.847656 633.945312 1625.929688 634.425781 1613.648438 C 635.0625 1601.207031 631.871094 1584.136719 618.789062 1579.671875 L 608.101562 1573.132812 C 604.589844 1555.425781 561.992188 1564.839844 553.695312 1568.984375 C 532.636719 1579.511719 508.542969 1603.121094 502.164062 1626.25 C 500.40625 1632.789062 497.855469 1641.722656 501.363281 1647.941406 C 504.714844 1653.84375 512.054688 1658.628906 517.636719 1662.296875 C 529.285156 1669.632812 549.707031 1676.492188 562.46875 1667.71875 C 552.101562 1676.492188 535.984375 1679.84375 526.414062 1689.253906 C 517.957031 1697.546875 523.859375 1706.800781 532.792969 1710.628906 C 556.089844 1720.835938 579.222656 1730.246094 599.164062 1746.039062 C 607.78125 1752.898438 619.109375 1750.027344 629.320312 1749.546875 C 637.617188 1749.230469 655.324219 1747.316406 661.546875 1740.617188 C 667.132812 1734.554688 662.503906 1728.492188 658.039062 1721.792969 Z M 658.039062 1721.792969 " fill-opacity="1" fill-rule="nonzero"/><path fill="#b55623" d="M 605.070312 1748.273438 C 608.101562 1747.953125 611.132812 1748.910156 614.164062 1747.792969 C 616.875 1746.675781 617.671875 1744.125 619.90625 1742.210938 C 625.011719 1737.902344 632.988281 1741.890625 638.890625 1740.773438 C 641.125 1740.296875 643.359375 1739.179688 644.316406 1736.945312 C 644.953125 1735.511719 644.316406 1733.757812 645.113281 1732.480469 C 646.230469 1730.40625 647.347656 1731.84375 648.941406 1731.046875 C 651.65625 1729.609375 648.144531 1728.015625 647.347656 1726.417969 C 649.101562 1723.707031 653.410156 1725.304688 655.804688 1725.941406 C 655.484375 1725.460938 653.890625 1723.867188 654.207031 1723.230469 C 654.6875 1721.792969 656.601562 1722.273438 657.398438 1722.75 C 659.792969 1723.707031 662.027344 1726.738281 663.144531 1728.972656 C 665.375 1733.597656 666.492188 1739.179688 661.386719 1742.210938 C 656.761719 1745.082031 651.972656 1745.402344 647.027344 1747.316406 C 640.328125 1750.027344 632.191406 1751.300781 625.171875 1751.78125 C 619.109375 1752.257812 607.78125 1754.8125 604.269531 1748.273438 " fill-opacity="1" fill-rule="nonzero"/><path fill="#743803" d="M 642.402344 1739.5 C 640.007812 1737.746094 632.828125 1735.988281 628.042969 1737.265625 L 629.480469 1737.746094 C 632.828125 1738.382812 640.804688 1740.136719 643.039062 1743.007812 C 643.835938 1743.964844 643.996094 1747.316406 645.113281 1747.632812 C 645.59375 1747.792969 649.582031 1746.675781 649.902344 1746.199219 C 651.015625 1744.921875 643.835938 1740.457031 642.402344 1739.5 Z M 642.402344 1739.5 " fill-opacity="1" fill-rule="nonzero"/><path fill="#743803" d="M 648.785156 1729.929688 C 652.132812 1731.203125 656.761719 1731.683594 659.472656 1734.234375 C 661.546875 1736.148438 662.027344 1738.0625 663.300781 1740.296875 C 669.683594 1735.351562 652.613281 1729.289062 648.785156 1729.929688 " fill-opacity="1" fill-rule="nonzero"/><path fill="#743803" d="M 651.65625 1720.675781 C 654.847656 1722.273438 661.070312 1727.375 663.460938 1730.40625 C 664.738281 1728.652344 662.503906 1725.621094 661.226562 1724.347656 C 658.515625 1721.953125 655.007812 1721.316406 651.65625 1720.675781 " fill-opacity="1" fill-rule="nonzero"/><path fill="#3b2101" d="M 628.042969 1737.265625 C 630.59375 1737.746094 631.710938 1737.425781 634.105469 1737.746094 C 636.019531 1737.902344 637.457031 1738.0625 639.53125 1738.542969 C 642.242188 1739.179688 644.15625 1740.933594 646.070312 1742.847656 C 647.1875 1743.804688 647.667969 1747.472656 649.742188 1746.359375 C 651.175781 1744.921875 643.996094 1738.859375 641.285156 1738.222656 C 637.296875 1737.105469 633.945312 1736.308594 628.042969 1737.265625 " fill-opacity="1" fill-rule="nonzero"/><path fill="#3b2101" d="M 660.589844 1733.4375 C 662.503906 1734.875 663.621094 1736.148438 663.78125 1736.945312 C 663.941406 1737.902344 663.78125 1739.019531 663.941406 1739.816406 C 664.417969 1739.019531 665.535156 1738.0625 665.214844 1737.105469 C 664.898438 1735.832031 661.707031 1733.757812 660.589844 1733.4375 " fill-opacity="1" fill-rule="nonzero"/><path fill="#3b2101" d="M 649.582031 1720.199219 C 651.175781 1720.199219 658.675781 1719.71875 658.355469 1722.589844 C 656.921875 1721.953125 655.644531 1721.472656 654.367188 1721.316406 C 653.570312 1721.15625 652.933594 1720.996094 652.132812 1720.835938 C 651.496094 1720.675781 650.21875 1720.515625 649.582031 1720.199219 " fill-opacity="1" fill-rule="nonzero"/><path fill="#743803" d="M 628.363281 1731.203125 C 625.171875 1728.8125 621.183594 1727.21875 617.195312 1725.941406 C 611.449219 1724.027344 604.589844 1723.867188 599.484375 1720.359375 C 595.816406 1717.804688 594.539062 1716.53125 590.070312 1715.574219 C 578.585938 1713.179688 575.871094 1702.015625 565.820312 1697.070312 L 565.5 1692.761719 C 563.585938 1689.890625 564.066406 1686.863281 563.585938 1683.511719 C 562.308594 1676.332031 557.683594 1677.289062 551.621094 1678.726562 C 547.472656 1679.683594 537.582031 1681.4375 535.027344 1684.949219 C 534.070312 1686.382812 534.230469 1687.339844 534.230469 1689.09375 C 534.070312 1693.242188 535.027344 1696.273438 531.679688 1699.144531 C 530.242188 1700.417969 524.65625 1702.332031 525.457031 1705.046875 C 525.617188 1706.003906 528.648438 1706.960938 529.445312 1707.4375 C 532.15625 1709.03125 534.867188 1710.789062 537.582031 1712.222656 C 543.804688 1715.574219 550.34375 1717.488281 556.566406 1720.515625 C 563.269531 1723.707031 569.648438 1728.015625 576.03125 1731.683594 C 582.730469 1735.511719 587.996094 1740.933594 595.816406 1742.6875 C 599.964844 1743.644531 604.429688 1744.285156 608.738281 1744.125 C 613.683594 1743.964844 617.671875 1741.730469 622.300781 1739.816406 C 627.246094 1738.0625 634.425781 1735.671875 628.363281 1731.203125 Z M 628.363281 1731.203125 " fill-opacity="1" fill-rule="nonzero"/><path fill="#c45d24" d="M 850.128906 1726.261719 C 847.894531 1713.339844 836.089844 1707.597656 824.761719 1706.960938 C 819.65625 1705.683594 814.390625 1705.046875 809.445312 1704.246094 C 800.828125 1702.972656 798.277344 1691.167969 793.96875 1683.511719 C 789.820312 1676.015625 782.324219 1667.242188 782.003906 1658.46875 C 781.683594 1651.292969 783.757812 1643.953125 783.4375 1636.457031 C 783.121094 1628.480469 782.164062 1620.347656 779.769531 1612.691406 C 773.386719 1591.316406 768.761719 1568.347656 772.589844 1545.855469 C 774.34375 1535.488281 778.492188 1527.035156 778.492188 1516.1875 C 778.492188 1511.242188 780.25 1502.789062 777.855469 1498.484375 C 773.070312 1490.027344 756.636719 1492.421875 748.660156 1492.421875 C 736.53125 1492.421875 721.058594 1488.433594 716.113281 1502.3125 C 713.71875 1509.167969 711.644531 1517.144531 710.207031 1524.164062 C 707.015625 1539.316406 699.679688 1575.84375 716.910156 1586.050781 L 732.542969 1600.566406 C 743.074219 1617.476562 743.710938 1640.125 750.734375 1658.46875 C 754.242188 1667.71875 762.378906 1673.144531 767.644531 1681.4375 C 776.101562 1694.835938 779.609375 1712.703125 789.660156 1724.824219 C 794.449219 1730.566406 802.265625 1730.246094 808.964844 1731.523438 C 809.765625 1731.683594 810.5625 1731.84375 811.359375 1732.160156 C 813.753906 1734.394531 815.667969 1736.789062 819.65625 1737.746094 C 829.867188 1739.660156 853 1743.804688 850.128906 1726.261719 Z M 850.128906 1726.261719 " fill-opacity="1" fill-rule="nonzero"/><path fill="#b55623" d="M 848.691406 1720.039062 C 848.214844 1718.761719 844.066406 1713.5 843.269531 1716.050781 C 842.628906 1717.804688 847.257812 1719.558594 846.460938 1721.472656 C 845.980469 1722.429688 845.023438 1721.953125 844.703125 1723.070312 C 844.386719 1723.867188 845.183594 1724.34375 845.023438 1724.984375 C 844.542969 1728.015625 843.90625 1725.78125 841.511719 1726.261719 C 839.4375 1726.578125 839.4375 1727.21875 840.398438 1728.972656 C 841.035156 1730.246094 841.832031 1729.929688 841.992188 1731.523438 C 842.152344 1732.320312 841.992188 1733.4375 841.671875 1734.234375 C 840.398438 1737.425781 838.003906 1735.988281 835.292969 1735.351562 C 833.375 1734.875 830.984375 1734.875 829.070312 1734.074219 C 825.398438 1732.320312 824.761719 1727.855469 819.976562 1727.855469 C 817.742188 1727.855469 816.464844 1728.175781 814.390625 1726.738281 C 812.636719 1725.460938 811.519531 1723.390625 809.285156 1722.433594 C 805.136719 1720.675781 801.46875 1724.347656 797.320312 1723.867188 C 792.375 1723.230469 790.777344 1716.371094 788.703125 1712.542969 C 786.46875 1708.234375 783.917969 1704.089844 782.003906 1699.621094 C 780.566406 1696.113281 779.769531 1692.285156 778.175781 1688.933594 C 774.34375 1681.117188 768.121094 1675.695312 760.304688 1671.707031 L 759.1875 1671.390625 C 760.625 1672.824219 761.902344 1674.261719 763.335938 1675.855469 C 766.6875 1680.003906 768.761719 1683.511719 771.3125 1688.296875 C 773.867188 1693.082031 775.941406 1699.304688 778.175781 1704.246094 C 782.164062 1712.859375 784.394531 1724.027344 793.648438 1728.972656 C 797.480469 1731.046875 801.945312 1730.726562 806.09375 1731.84375 C 808.488281 1732.480469 810.242188 1731.683594 811.839844 1733.597656 C 813.273438 1735.191406 813.59375 1737.425781 815.347656 1738.542969 C 819.175781 1741.253906 826.675781 1741.730469 831.300781 1741.730469 C 835.929688 1741.730469 841.195312 1742.210938 845.183594 1739.660156 C 853.160156 1733.917969 851.246094 1727.855469 848.691406 1720.039062 Z M 848.691406 1720.039062 " fill-opacity="1" fill-rule="nonzero"/><path fill="#743803" d="M 820.453125 1731.203125 C 822.527344 1732.960938 823.007812 1735.511719 822.527344 1738.222656 C 822.367188 1738.859375 821.570312 1739.976562 821.890625 1740.617188 C 822.367188 1741.253906 824.441406 1741.09375 825.082031 1741.09375 C 826.195312 1741.09375 827.3125 1741.414062 828.429688 1741.414062 C 829.070312 1741.414062 829.546875 1741.730469 829.546875 1741.09375 C 829.546875 1740.773438 828.75 1740.136719 828.589844 1739.660156 C 828.113281 1737.902344 827.953125 1736.628906 826.675781 1735.191406 C 825.71875 1734.074219 824.761719 1733.4375 823.484375 1732.480469 C 822.6875 1732.003906 821.410156 1731.046875 820.453125 1731.046875 " fill-opacity="1" fill-rule="nonzero"/><path fill="#743803" d="M 845.820312 1732.320312 C 844.703125 1730.726562 843.90625 1729.449219 841.992188 1728.8125 L 841.671875 1728.8125 C 844.542969 1729.769531 845.183594 1734.554688 843.90625 1736.789062 C 843.429688 1737.585938 842.628906 1738.222656 842.472656 1739.019531 C 842.152344 1739.976562 841.832031 1740.136719 842.789062 1740.296875 C 844.226562 1740.296875 846.617188 1738.859375 847.417969 1737.585938 C 848.535156 1735.988281 846.777344 1733.757812 845.820312 1732.320312 Z M 845.820312 1732.320312 " fill-opacity="1" fill-rule="nonzero"/><path fill="#743803" d="M 846.460938 1724.34375 C 849.332031 1725.460938 849.332031 1727.535156 849.492188 1729.289062 C 849.648438 1730.089844 849.648438 1731.046875 849.648438 1732.003906 C 849.648438 1732.960938 849.96875 1733.597656 850.609375 1732.480469 C 852.042969 1729.449219 849.648438 1724.664062 846.460938 1724.34375 Z M 846.460938 1724.34375 " fill-opacity="1" fill-rule="nonzero"/><path fill="#743803" d="M 845.023438 1718.125 C 846.140625 1718.285156 848.054688 1720.199219 848.851562 1720.835938 C 849.171875 1719.558594 845.980469 1717.964844 845.023438 1718.125 Z M 845.023438 1718.125 " fill-opacity="1" fill-rule="nonzero"/><path fill="#743803" d="M 813.273438 1732.800781 C 813.113281 1731.683594 813.113281 1729.929688 811.996094 1729.132812 C 810.722656 1728.175781 809.605469 1728.652344 808.167969 1728.972656 C 807.53125 1729.132812 806.890625 1729.449219 806.253906 1729.609375 C 804.660156 1730.246094 802.902344 1730.089844 801.148438 1730.089844 L 800.191406 1730.40625 C 802.902344 1732.320312 806.734375 1731.046875 809.765625 1731.84375 C 811.679688 1732.320312 812.953125 1735.988281 814.390625 1737.425781 C 814.390625 1736.148438 813.59375 1734.074219 813.273438 1732.800781 Z M 813.273438 1732.800781 " fill-opacity="1" fill-rule="nonzero"/><path fill="#3b2101" d="M 824.761719 1735.03125 C 825.71875 1735.988281 825.878906 1737.902344 825.558594 1739.179688 C 825.398438 1739.5 825.238281 1739.976562 825.082031 1740.296875 C 824.921875 1740.617188 824.601562 1740.773438 824.921875 1741.09375 C 825.238281 1741.253906 825.878906 1741.253906 826.195312 1741.253906 C 826.355469 1741.253906 827.472656 1741.253906 827.632812 1741.253906 C 827.953125 1741.09375 827.472656 1740.296875 827.472656 1740.136719 C 827.3125 1739.5 827.15625 1738.703125 826.835938 1738.0625 C 826.355469 1736.945312 825.398438 1735.832031 824.761719 1735.03125 " fill-opacity="1" fill-rule="nonzero"/><path fill="#3b2101" d="M 845.820312 1732.320312 C 845.980469 1732.960938 846.300781 1733.757812 846.460938 1734.394531 C 846.617188 1735.03125 846.617188 1735.511719 846.617188 1736.148438 C 846.617188 1737.105469 846.460938 1738.222656 845.980469 1739.019531 C 846.617188 1739.019531 846.9375 1738.0625 847.417969 1737.585938 C 847.894531 1737.105469 848.054688 1736.789062 847.734375 1736.148438 C 847.257812 1734.875 846.9375 1733.277344 845.820312 1732.320312 " fill-opacity="1" fill-rule="nonzero"/><path fill="#3b2101" d="M 850.128906 1727.695312 C 850.128906 1727.695312 850.289062 1727.695312 850.128906 1727.695312 C 850.128906 1727.695312 850.128906 1727.535156 850.128906 1727.375 Z M 850.128906 1727.695312 " fill-opacity="1" fill-rule="nonzero"/><path fill="#3b2101" d="M 851.085938 1729.449219 C 850.925781 1728.8125 850.449219 1728.332031 850.289062 1727.855469 C 850.289062 1728.175781 850.449219 1728.492188 850.449219 1728.652344 C 850.449219 1729.289062 850.449219 1729.929688 850.609375 1730.566406 C 850.765625 1731.046875 850.609375 1731.523438 850.765625 1732.003906 C 850.925781 1731.203125 851.246094 1730.089844 851.085938 1729.449219 Z M 851.085938 1729.449219 " fill-opacity="1" fill-rule="nonzero"/><path fill="#743803" d="M 830.984375 1726.101562 C 831.460938 1726.261719 831.78125 1726.578125 832.101562 1726.738281 C 832.578125 1727.058594 833.21875 1727.535156 833.855469 1727.695312 C 834.972656 1728.175781 836.25 1728.332031 837.367188 1728.332031 C 838.640625 1728.332031 839.917969 1728.332031 841.195312 1728.492188 C 840.875 1728.175781 840.398438 1728.015625 839.917969 1727.695312 C 839.597656 1727.535156 839.28125 1727.375 838.800781 1727.21875 C 837.84375 1726.898438 836.886719 1727.21875 835.929688 1727.058594 C 834.175781 1726.898438 832.738281 1725.78125 830.984375 1725.78125 " fill-opacity="1" fill-rule="nonzero"/><path fill="#743803" d="M 844.863281 1723.707031 C 844.542969 1723.546875 844.226562 1723.386719 843.90625 1723.230469 C 842.789062 1722.589844 841.671875 1722.75 840.554688 1722.589844 C 839.28125 1722.429688 837.84375 1722.273438 836.566406 1721.953125 C 836.25 1721.953125 835.769531 1721.792969 835.449219 1721.792969 C 835.132812 1721.792969 834.8125 1721.792969 834.492188 1721.632812 L 834.492188 1721.792969 C 835.449219 1722.273438 836.40625 1722.910156 837.523438 1723.070312 C 838.480469 1723.230469 839.597656 1723.230469 840.554688 1723.230469 C 841.671875 1723.230469 842.628906 1723.230469 843.746094 1723.546875 C 844.386719 1723.707031 845.023438 1723.867188 845.660156 1724.1875 C 845.34375 1723.867188 845.023438 1723.707031 844.863281 1723.707031 Z M 844.863281 1723.707031 " fill-opacity="1" fill-rule="nonzero"/><path fill="#743803" d="M 833.535156 1714.136719 C 834.332031 1714.933594 835.769531 1715.574219 836.726562 1715.890625 C 837.523438 1716.050781 838.324219 1716.050781 839.121094 1715.890625 C 839.597656 1715.890625 840.078125 1716.050781 841.511719 1716.53125 C 841.992188 1716.6875 842.472656 1716.847656 842.949219 1717.007812 C 843.269531 1717.167969 843.429688 1717.328125 843.585938 1717.328125 C 843.269531 1716.847656 842.3125 1716.53125 841.832031 1716.210938 C 841.035156 1715.730469 840.398438 1715.253906 839.597656 1715.09375 C 838.324219 1714.933594 837.207031 1715.09375 835.929688 1714.773438 C 835.292969 1714.773438 834.332031 1714.296875 833.535156 1714.136719 " fill-opacity="1" fill-rule="nonzero"/><path fill="#743803" d="M 771.953125 1587.964844 L 768.761719 1584.777344 C 761.582031 1584.9375 753.285156 1587.964844 747.222656 1591.953125 C 739.566406 1597.058594 739.566406 1604.714844 740.042969 1613.167969 C 740.839844 1624.8125 745.46875 1635.339844 747.222656 1646.824219 C 747.859375 1650.8125 748.339844 1657.035156 752.167969 1650.972656 C 754.082031 1647.78125 754.082031 1642.039062 756.953125 1639.648438 C 759.027344 1638.050781 760.464844 1638.847656 762.539062 1636.933594 C 764.453125 1635.179688 765.730469 1631.832031 766.367188 1629.4375 C 767.804688 1624.335938 767.164062 1618.433594 767.164062 1613.167969 C 767.164062 1610.9375 767.164062 1609.5 768.121094 1607.90625 C 769.082031 1606.46875 771.15625 1605.832031 771.953125 1603.757812 C 773.707031 1599.449219 773.226562 1592.273438 771.953125 1587.964844 Z M 771.953125 1587.964844 " fill-opacity="1" fill-rule="nonzero"/><path fill="#d36c28" d="M 898.949219 1369.441406 C 894.003906 1350.300781 864.167969 1347.429688 848.535156 1347.109375 C 826.515625 1346.632812 806.414062 1358.117188 784.714844 1356.839844 C 776.898438 1356.363281 771.3125 1352.054688 764.132812 1350.140625 L 763.496094 1351.894531 C 761.582031 1357.160156 758.871094 1365.773438 755.199219 1369.917969 C 751.691406 1373.90625 747.859375 1381.246094 745.148438 1385.871094 C 738.289062 1397.992188 732.863281 1403.417969 720.578125 1413.464844 C 705.421875 1425.746094 691.382812 1438.667969 674.3125 1448.078125 C 649.902344 1461.636719 621.183594 1466.742188 595.335938 1477.425781 C 550.503906 1496.089844 502.480469 1528.3125 480.144531 1572.972656 C 471.847656 1589.722656 464.507812 1611.09375 467.699219 1629.917969 C 470.253906 1645.070312 481.101562 1667.402344 493.867188 1676.332031 C 511.574219 1688.777344 540.292969 1685.746094 560.714844 1684.949219 C 581.296875 1683.992188 602.039062 1677.289062 620.863281 1669.316406 C 650.699219 1656.714844 677.660156 1639.007812 705.101562 1621.78125 C 729.355469 1606.628906 756.15625 1592.433594 782.640625 1581.265625 C 799.394531 1574.089844 814.871094 1563.402344 827.792969 1550.324219 C 838.640625 1539.316406 849.011719 1525.757812 855.714844 1511.882812 C 858.585938 1506.140625 860.019531 1500.078125 861.296875 1493.855469 C 864.007812 1481.097656 868.636719 1468.015625 872.945312 1455.734375 C 879.007812 1438.347656 887.941406 1421.757812 893.523438 1403.894531 C 897.035156 1393.207031 901.820312 1380.765625 898.949219 1369.441406 Z M 898.949219 1369.441406 " fill-opacity="1" fill-rule="nonzero"/><path fill="#f4f6f2" d="M 899.109375 1357.636719 C 897.355469 1349.023438 891.449219 1358.59375 883.632812 1354.925781 C 879.484375 1353.011719 873.421875 1350.460938 868.796875 1350.777344 C 863.53125 1351.097656 853 1356.363281 851.566406 1361.625 L 860.019531 1388.742188 C 863.691406 1400.226562 863.691406 1419.367188 858.902344 1431.011719 C 856.351562 1437.074219 853 1443.613281 848.851562 1448.558594 C 845.820312 1452.066406 841.992188 1453.820312 840.238281 1458.285156 C 852.363281 1459.722656 829.867188 1484.285156 827.632812 1487.796875 C 824.761719 1492.101562 821.890625 1495.292969 822.050781 1499.28125 C 822.367188 1504.226562 825.238281 1505.820312 821.890625 1511.5625 C 818.539062 1517.78125 812.636719 1522.886719 808.488281 1528.46875 C 803.0625 1535.648438 798.753906 1543.78125 794.605469 1551.917969 C 788.542969 1563.722656 780.566406 1576.003906 772.589844 1586.210938 C 781.84375 1588.125 806.253906 1573.292969 812.953125 1568.1875 C 825.398438 1558.777344 832.101562 1550.640625 842.789062 1539.316406 C 849.332031 1532.296875 852.839844 1523.367188 857.308594 1515.070312 C 862.734375 1504.703125 867.839844 1493.855469 870.390625 1482.214844 C 872.464844 1472.484375 872.785156 1461.636719 877.09375 1452.542969 C 882.199219 1442.015625 887.78125 1433.242188 890.015625 1421.601562 C 892.726562 1405.96875 904.851562 1387.144531 899.109375 1357.636719 Z M 899.109375 1357.636719 " fill-opacity="1" fill-rule="nonzero"/><path fill="#c45d24" d="M 860.976562 1355.085938 C 845.980469 1351.574219 827.15625 1353.96875 811.996094 1354.449219 C 803.542969 1354.765625 795.40625 1355.722656 787.109375 1356.839844 C 770.515625 1359.390625 778.015625 1340.890625 763.65625 1350.140625 L 753.285156 1371.832031 C 745.308594 1383.796875 735.894531 1396.078125 725.207031 1405.648438 C 719.460938 1410.753906 714.515625 1415.21875 708.933594 1423.355469 C 716.429688 1426.703125 722.332031 1419.6875 729.195312 1417.929688 C 731.746094 1425.109375 714.039062 1441.699219 730.628906 1438.828125 C 743.394531 1436.59375 756.15625 1428.140625 766.6875 1421.28125 C 769.082031 1427.980469 760.304688 1440.582031 769.398438 1442.496094 C 780.25 1444.570312 792.691406 1429.097656 800.828125 1424.628906 C 803.0625 1427.023438 801.628906 1431.488281 803.859375 1433.402344 C 807.210938 1436.117188 813.59375 1432.445312 816.464844 1431.171875 C 821.570312 1428.777344 826.835938 1425.585938 830.984375 1421.601562 C 833.375 1419.207031 834.972656 1416.015625 837.84375 1414.421875 C 840.078125 1421.917969 850.609375 1415.539062 854.753906 1412.667969 C 863.050781 1407.085938 862.734375 1389.378906 866.402344 1380.445312 C 870.871094 1368.324219 875.816406 1358.59375 860.976562 1355.085938 Z M 860.976562 1355.085938 " fill-opacity="1" fill-rule="nonzero"/><path fill="#df7334" d="M 909.957031 1202.117188 L 908.683594 1200.839844 C 900.703125 1197.171875 901.183594 1194.621094 893.683594 1198.449219 C 885.230469 1202.914062 879.324219 1212.167969 873.101562 1221.097656 C 868.957031 1227 856.511719 1234.019531 850.609375 1238.324219 C 843.746094 1243.429688 830.503906 1240.398438 822.207031 1241.996094 C 812.476562 1243.910156 805.296875 1249.808594 799.394531 1257.625 C 793.96875 1264.804688 787.746094 1269.90625 781.683594 1276.289062 C 768.761719 1290.164062 765.730469 1315.367188 764.933594 1333.550781 C 764.453125 1346.789062 759.507812 1359.550781 752.808594 1370.875 C 751.691406 1372.632812 744.988281 1382.203125 745.308594 1383.476562 C 745.945312 1386.1875 749.777344 1383.636719 752.808594 1382.679688 C 754.242188 1382.203125 755.519531 1383.316406 755.519531 1384.753906 C 755.519531 1386.03125 755.199219 1387.304688 755.199219 1388.742188 C 755.199219 1389.859375 755.996094 1390.816406 757.113281 1390.816406 C 763.335938 1391.132812 773.867188 1383.796875 779.609375 1380.605469 C 780.566406 1380.128906 781.84375 1380.289062 782.324219 1381.246094 C 785.035156 1385.230469 784.875 1390.335938 784.714844 1395.121094 C 784.714844 1395.917969 785.195312 1396.71875 785.992188 1397.035156 C 794.449219 1400.703125 802.105469 1395.121094 809.605469 1391.773438 C 810.882812 1391.132812 812.316406 1391.929688 812.476562 1393.207031 C 812.953125 1396.238281 812.636719 1399.746094 812.476562 1402.777344 C 812.476562 1403.734375 812.953125 1404.53125 813.914062 1404.851562 C 823.964844 1407.882812 834.015625 1397.992188 841.355469 1391.773438 C 842.472656 1390.972656 844.066406 1391.292969 844.542969 1392.570312 C 847.097656 1398.3125 844.226562 1403.097656 854.753906 1401.183594 C 859.382812 1400.386719 861.296875 1395.121094 864.328125 1391.613281 C 865.445312 1390.335938 867.359375 1390.816406 867.839844 1392.410156 C 869.914062 1399.429688 878.050781 1398.152344 881.082031 1393.207031 C 884.589844 1387.625 887.144531 1381.246094 889.535156 1375.34375 C 895.121094 1361.625 897.832031 1347.589844 897.992188 1332.59375 C 898.3125 1300.214844 910.117188 1274.851562 920.488281 1244.867188 C 926.550781 1229.074219 922.402344 1213.28125 909.957031 1202.117188 Z M 909.957031 1202.117188 " fill-opacity="1" fill-rule="nonzero"/><path fill="#f4f6f2" d="M 923.996094 1224.925781 C 923.359375 1216.953125 921.605469 1207.382812 914.746094 1202.914062 C 908.523438 1198.925781 903.894531 1195.738281 898.789062 1201.480469 L 898.628906 1205.785156 C 896.078125 1214.71875 893.046875 1224.289062 887.460938 1231.785156 C 882.996094 1237.6875 876.292969 1241.835938 871.347656 1247.578125 C 863.371094 1256.988281 864.964844 1263.527344 865.285156 1274.695312 C 865.605469 1287.773438 857.628906 1299.894531 850.289062 1310.261719 C 844.863281 1317.921875 840.078125 1336.261719 855.074219 1323.664062 C 858.105469 1332.277344 850.609375 1346.632812 850.765625 1356.203125 C 853.480469 1357.160156 856.03125 1355.40625 858.105469 1353.332031 C 859.542969 1361.625 857.46875 1373.109375 857.46875 1381.882812 C 857.46875 1385.074219 858.425781 1403.257812 864.648438 1394.164062 C 866.722656 1395.441406 869.914062 1399.589844 872.464844 1399.90625 C 876.453125 1400.386719 881.878906 1394.644531 883.953125 1391.773438 C 888.417969 1385.871094 900.546875 1376.460938 900.386719 1368.960938 C 899.746094 1346.949219 899.269531 1341.207031 901.34375 1323.820312 C 903.257812 1308.191406 906.128906 1288.570312 911.871094 1273.894531 C 918.09375 1258.265625 925.273438 1242.3125 923.996094 1224.925781 Z M 923.996094 1224.925781 " fill-opacity="1" fill-rule="nonzero"/><g clip-path="url(#id3)"><path fill="#d36c28" d="M 516.042969 1721.15625 C 511.734375 1706.320312 498.8125 1683.191406 491.632812 1669.792969 C 485.25 1657.992188 482.699219 1657.351562 482.539062 1643.792969 C 482.378906 1635.820312 483.496094 1628.320312 485.570312 1620.507812 C 486.527344 1616.835938 489.238281 1611.734375 484.929688 1609.5 L 483.65625 1608.863281 C 478.390625 1610.9375 475.996094 1617.476562 472.167969 1621.304688 C 468.816406 1624.652344 465.308594 1627.207031 462.277344 1630.875 C 454.296875 1640.761719 448.234375 1652.566406 442.015625 1663.414062 C 431.003906 1682.554688 426.855469 1703.609375 418.402344 1723.707031 C 405.476562 1754.171875 400.214844 1786.394531 391.4375 1818.296875 C 388.566406 1828.824219 386.015625 1839.667969 380.109375 1848.921875 C 372.929688 1860.085938 367.507812 1872.527344 366.550781 1885.925781 C 365.75 1897.730469 367.984375 1910.171875 371.65625 1921.335938 C 374.046875 1928.675781 377.558594 1935.695312 379.152344 1943.351562 C 380.589844 1950.367188 379.472656 1957.707031 379.949219 1964.722656 C 384.417969 1965.519531 387.289062 1962.492188 390.640625 1960.417969 C 394.949219 1967.433594 390.160156 1982.429688 386.652344 1989.128906 C 397.980469 1987.214844 411.539062 1973.019531 420.953125 1966.476562 C 431.164062 1959.300781 442.332031 1950.207031 449.195312 1939.523438 C 458.765625 1924.847656 466.105469 1910.011719 468.976562 1892.785156 C 470.09375 1896.453125 470.574219 1900.441406 471.6875 1904.109375 C 486.046875 1886.40625 490.835938 1865.03125 495.460938 1843.339844 C 499.929688 1843.496094 502.320312 1848.441406 505.351562 1851.152344 C 514.605469 1843.496094 517.160156 1819.730469 518.753906 1808.566406 C 520.828125 1793.570312 518.117188 1778.101562 519.871094 1763.425781 C 520.511719 1763.742188 521.148438 1764.222656 521.625 1764.699219 C 527.6875 1759.277344 518.4375 1729.289062 516.042969 1721.15625 Z M 516.042969 1721.15625 " fill-opacity="1" fill-rule="nonzero"/></g><g clip-path="url(#id4)"><path fill="#fcfded" d="M 392.078125 1816.699219 C 394.789062 1822.601562 397.023438 1827.707031 397.980469 1834.246094 C 398.457031 1838.074219 397.5 1848.921875 400.851562 1852.113281 C 405.796875 1857.054688 409.308594 1849.242188 411.539062 1845.253906 C 414.890625 1839.03125 417.125 1833.609375 423.027344 1829.460938 C 425.742188 1832.332031 424.941406 1837.914062 427.8125 1840.625 C 433.238281 1845.730469 440.417969 1838.234375 444.40625 1834.726562 C 449.351562 1830.257812 454.300781 1825.3125 458.605469 1820.210938 C 463.550781 1814.308594 465.625 1806.332031 470.253906 1800.589844 C 474.082031 1807.289062 465.46875 1833.609375 477.910156 1829.621094 C 483.816406 1827.707031 489.398438 1817.5 493.867188 1812.871094 C 498.492188 1807.929688 503.597656 1803.300781 508.226562 1798.199219 C 518.59375 1810.480469 517.957031 1837.277344 514.128906 1851.953125 C 511.257812 1863.117188 506.789062 1872.527344 499.609375 1881.621094 C 495.621094 1886.722656 490.035156 1895.65625 484.929688 1899.324219 C 483.015625 1900.601562 480.304688 1900.125 478.550781 1902.195312 C 474.5625 1906.664062 475.199219 1915.59375 472.167969 1920.859375 C 468.976562 1926.441406 464.351562 1931.867188 460.679688 1938.085938 C 452.542969 1951.964844 440.898438 1965.519531 427.175781 1973.976562 C 413.933594 1982.109375 403.085938 1988.96875 387.289062 1989.128906 C 388.40625 1981.949219 392.875 1974.453125 391.121094 1967.277344 C 387.128906 1967.753906 382.664062 1969.988281 379.152344 1971.421875 C 376.28125 1960.257812 379.949219 1947.65625 377.71875 1936.171875 C 375.960938 1927.398438 372.613281 1921.335938 367.824219 1914.320312 C 367.1875 1914.796875 366.550781 1915.277344 365.910156 1915.753906 C 363.519531 1909.375 365.113281 1897.410156 365.273438 1890.394531 C 365.75 1879.867188 366.550781 1869.019531 371.8125 1859.925781 C 379.949219 1845.253906 384.738281 1834.882812 392.078125 1816.699219 " fill-opacity="1" fill-rule="nonzero"/></g><path fill="#d4d7d1" d="M 507.746094 1800.269531 C 503.277344 1802.34375 499.128906 1807.609375 494.984375 1810.480469 C 494.824219 1810.640625 494.664062 1810.800781 494.503906 1810.957031 L 486.6875 1821.644531 C 486.367188 1821.964844 486.367188 1822.441406 486.367188 1822.921875 C 486.847656 1833.449219 482.539062 1845.730469 476.792969 1854.34375 C 470.730469 1863.277344 462.4375 1868.382812 454.777344 1875.558594 C 453.5 1876.675781 451.90625 1878.269531 450.628906 1879.867188 C 449.832031 1880.980469 450.308594 1882.578125 451.585938 1882.894531 C 455.894531 1884.171875 447.4375 1896.453125 446.160156 1898.847656 C 441.535156 1906.664062 437.226562 1914.636719 431.960938 1921.976562 C 430.046875 1924.6875 421.433594 1934.417969 423.027344 1938.085938 C 424.625 1941.753906 428.453125 1940.320312 431.960938 1938.882812 C 433.238281 1938.246094 434.835938 1939.363281 434.675781 1940.796875 C 434.035156 1946.859375 428.929688 1954.515625 426.378906 1959.300781 C 423.027344 1965.519531 420.316406 1974.292969 416.007812 1980.515625 C 415.050781 1981.949219 416.328125 1983.863281 417.921875 1983.546875 C 426.539062 1981.792969 436.589844 1971.582031 442.652344 1966.957031 C 450.789062 1960.894531 456.851562 1956.109375 462.753906 1947.816406 C 468.5 1939.679688 472.644531 1932.980469 475.996094 1923.730469 C 477.59375 1919.582031 478.550781 1914.320312 479.984375 1910.011719 C 480.464844 1908.417969 482.699219 1908.257812 483.496094 1909.695312 C 483.496094 1909.695312 483.496094 1909.851562 483.65625 1909.851562 C 484.132812 1910.808594 485.25 1911.128906 486.046875 1910.808594 C 494.664062 1907.300781 502.480469 1889.4375 505.832031 1882.417969 C 509.980469 1873.804688 513.808594 1863.914062 514.289062 1854.183594 C 514.765625 1844.613281 521.625 1827.070312 521.625 1817.5 C 521.625 1808.246094 513.332031 1809.203125 510.457031 1801.867188 C 509.820312 1800.269531 508.703125 1799.792969 507.746094 1800.269531 Z M 507.746094 1800.269531 " fill-opacity="1" fill-rule="nonzero"/><path fill="#c45d24" d="M 525.457031 1736.46875 C 524.019531 1726.898438 521.308594 1716.371094 516.679688 1707.757812 C 509.5 1694.675781 498.652344 1683.03125 491.632812 1669.953125 L 490.515625 1677.769531 C 491.152344 1686.382812 484.292969 1689.890625 482.699219 1697.707031 C 481.101562 1705.046875 484.773438 1708.074219 486.6875 1714.296875 C 490.035156 1725.460938 490.035156 1739.179688 487.484375 1750.34375 C 485.886719 1756.886719 484.929688 1763.902344 482.058594 1769.964844 C 480.625 1772.996094 478.390625 1775.386719 477.59375 1778.738281 C 490.675781 1780.972656 466.902344 1817.816406 472.167969 1828.183594 C 474.5625 1832.96875 484.929688 1828.34375 490.675781 1829.300781 C 497.535156 1830.417969 501.523438 1832.96875 505.832031 1839.351562 C 509.660156 1845.253906 515.40625 1860.40625 516.679688 1846.6875 C 517.957031 1832.652344 524.339844 1811.757812 524.5 1797.71875 C 524.65625 1786.394531 523.222656 1774.273438 520.511719 1763.425781 C 521.785156 1763.585938 525.457031 1767.890625 527.050781 1768.371094 C 530.402344 1761.03125 526.730469 1744.445312 525.457031 1736.46875 Z M 525.457031 1736.46875 " fill-opacity="1" fill-rule="nonzero"/><path fill="#c3c6c1" d="M 710.207031 1591.476562 L 707.175781 1592.113281 C 703.507812 1603.121094 688.667969 1612.53125 677.660156 1614.921875 C 668.566406 1616.835938 661.386719 1615.242188 652.773438 1614.285156 C 642.082031 1613.167969 642.242188 1620.664062 635.699219 1625.929688 C 629.160156 1631.191406 618.46875 1629.597656 613.84375 1637.890625 C 610.492188 1643.632812 610.175781 1652.089844 607.621094 1658.308594 C 605.070312 1664.371094 601.398438 1670.273438 597.410156 1675.535156 C 595.816406 1677.609375 588.316406 1684.148438 588.476562 1686.542969 C 589.113281 1694.039062 619.585938 1672.347656 624.214844 1669.792969 C 639.847656 1661.179688 656.121094 1653.683594 671.597656 1644.910156 C 683.40625 1638.210938 703.027344 1628.003906 709.25 1614.921875 C 712.921875 1608.382812 711.644531 1598.8125 710.207031 1591.476562 Z M 710.207031 1591.476562 " fill-opacity="1" fill-rule="nonzero"/><path fill="#ea853a" d="M 711.007812 1425.585938 C 709.410156 1418.570312 701.433594 1428.777344 697.125 1431.488281 C 688.667969 1436.753906 683.882812 1440.902344 675.109375 1445.527344 C 657.078125 1454.9375 636.5 1462.113281 616.875 1467.21875 C 590.070312 1474.238281 565.820312 1483.171875 542.207031 1497.683594 C 518.914062 1512.039062 494.984375 1531.183594 480.625 1554.949219 C 474.082031 1565.796875 471.050781 1577.917969 467.859375 1589.878906 C 466.425781 1595.304688 461.320312 1622.261719 467.382812 1625.929688 L 473.921875 1623.535156 C 499.289062 1625.609375 511.894531 1583.179688 523.0625 1565.636719 C 524.976562 1562.765625 527.210938 1557.660156 529.761719 1555.425781 C 534.550781 1551.28125 534.390625 1554.949219 539.816406 1555.90625 C 547.953125 1557.179688 554.492188 1545.378906 559.4375 1539.636719 C 567.894531 1529.746094 577.46875 1520.496094 588.636719 1513.476562 C 591.507812 1511.722656 601.71875 1505.5 604.75 1506.777344 C 608.101562 1508.210938 605.867188 1512.839844 610.8125 1513.476562 C 614.960938 1513.953125 616.394531 1509.808594 618.46875 1507.414062 C 623.734375 1501.195312 629.480469 1495.453125 635.699219 1490.027344 C 647.507812 1479.34375 661.226562 1471.207031 675.109375 1463.390625 C 684.679688 1457.96875 695.53125 1453.34375 704.304688 1446.484375 C 708.613281 1442.972656 712.601562 1432.605469 711.007812 1425.585938 Z M 711.007812 1425.585938 " fill-opacity="1" fill-rule="nonzero"/><path fill="#c45d24" d="M 698.878906 1537.882812 L 688.667969 1530.542969 C 679.894531 1532.296875 689.46875 1558.777344 686.597656 1566.753906 C 683.722656 1575.046875 679.894531 1586.691406 684.203125 1595.144531 C 690.265625 1606.789062 704.941406 1610.777344 704.144531 1593.867188 C 703.828125 1587.488281 702.710938 1582.222656 705.902344 1576.324219 C 709.730469 1569.304688 716.910156 1564.039062 719.300781 1556.382812 C 724.089844 1542.1875 710.207031 1537.882812 698.878906 1537.882812 Z M 698.878906 1537.882812 " fill-opacity="1" fill-rule="nonzero"/><path fill="#d4d7d1" d="M 893.207031 1279 C 889.058594 1281.871094 884.429688 1285.0625 881.878906 1289.527344 C 879.484375 1293.992188 877.09375 1303.085938 878.6875 1308.03125 C 878.6875 1308.191406 879.007812 1308.347656 879.164062 1308.191406 L 882.835938 1304.519531 C 882.996094 1304.363281 883.3125 1304.363281 883.3125 1304.519531 C 884.269531 1306.59375 881.558594 1310.902344 880.921875 1312.816406 C 880.125 1315.207031 879.484375 1317.761719 879.324219 1320.472656 C 879.007812 1328.289062 882.835938 1319.835938 885.707031 1318.078125 C 885.867188 1317.921875 886.1875 1318.078125 886.1875 1318.238281 C 887.144531 1321.75 885.230469 1326.375 887.144531 1329.722656 C 887.144531 1329.882812 887.300781 1329.882812 887.460938 1329.882812 C 889.21875 1329.246094 890.972656 1326.851562 892.25 1325.257812 C 892.40625 1325.097656 892.726562 1325.097656 892.726562 1325.257812 C 893.523438 1327.011719 892.886719 1330.679688 892.726562 1332.433594 C 892.40625 1335.945312 892.089844 1339.933594 892.40625 1343.601562 C 892.566406 1345.832031 894.324219 1353.171875 897.355469 1349.34375 C 899.109375 1347.109375 898.789062 1343.121094 899.269531 1340.570312 C 900.226562 1335.148438 900.703125 1329.722656 901.023438 1324.140625 C 901.820312 1308.03125 907.566406 1293.675781 912.511719 1278.523438 C 914.105469 1273.578125 915.859375 1268.472656 917.136719 1263.367188 C 917.617188 1261.136719 917.933594 1258.902344 918.414062 1256.667969 C 918.414062 1256.351562 917.933594 1256.191406 917.777344 1256.507812 C 913.148438 1265.921875 901.503906 1273.257812 893.207031 1279 Z M 893.207031 1279 " fill-opacity="1" fill-rule="nonzero"/><path fill="#f4f6f2" d="M 861.296875 1252.042969 C 860.820312 1249.96875 857.628906 1250.609375 855.714844 1250.289062 C 850.925781 1249.011719 845.183594 1247.578125 840.714844 1250.128906 L 839.121094 1253.320312 C 840.238281 1256.667969 839.597656 1255.871094 841.671875 1258.742188 C 843.269531 1260.65625 847.257812 1266.078125 849.648438 1267.195312 C 854.117188 1269.109375 858.105469 1260.65625 860.019531 1257.625 C 860.816406 1256.507812 861.617188 1253.160156 861.296875 1252.042969 Z M 861.296875 1252.042969 " fill-opacity="1" fill-rule="nonzero"/><path fill="#24221d" d="M 860.660156 1250.765625 C 860.660156 1250.765625 860.5 1250.609375 860.5 1250.609375 C 856.828125 1247.097656 848.054688 1247.417969 843.429688 1248.695312 C 839.121094 1249.96875 838.003906 1253.636719 840.714844 1256.828125 C 846.9375 1263.847656 860.976562 1262.890625 861.296875 1252.363281 C 861.296875 1252.042969 861.136719 1251.722656 860.976562 1251.40625 Z M 860.660156 1250.765625 " fill-opacity="1" fill-rule="nonzero"/><path fill="#f4f6f2" d="M 850.765625 1252.042969 L 850.449219 1251.722656 C 846.140625 1247.257812 838.640625 1254.277344 844.703125 1256.507812 C 846.777344 1257.308594 850.925781 1257.148438 852.679688 1255.710938 C 855.234375 1253.796875 853.640625 1252.042969 850.765625 1252.042969 Z M 850.765625 1252.042969 " fill-opacity="1" fill-rule="nonzero"/><path fill="#f4f6f2" d="M 850.449219 1249.332031 C 849.648438 1251.246094 853.320312 1251.566406 854.597656 1251.246094 C 854.753906 1251.246094 854.914062 1251.085938 855.074219 1250.925781 C 855.394531 1250.609375 855.234375 1249.96875 854.753906 1249.808594 C 853.320312 1249.011719 850.925781 1248.054688 850.449219 1249.332031 Z M 850.449219 1249.332031 " fill-opacity="1" fill-rule="nonzero"/><path fill="#24221d" d="M 862.09375 1250.925781 C 861.777344 1249.96875 860.179688 1250.289062 860.5 1251.40625 C 860.976562 1252.679688 860.179688 1254.277344 859.859375 1255.550781 C 859.222656 1257.308594 858.425781 1258.742188 857.46875 1260.335938 C 855.714844 1262.890625 853.480469 1265.761719 850.449219 1266.71875 C 849.171875 1265.761719 847.894531 1265.121094 846.777344 1264.007812 C 845.503906 1262.730469 844.542969 1260.976562 843.585938 1259.378906 C 841.355469 1255.394531 839.28125 1251.246094 840.238281 1246.621094 C 840.398438 1245.503906 838.800781 1245.183594 838.640625 1246.140625 C 837.683594 1250.765625 839.121094 1254.914062 841.355469 1259.0625 C 842.3125 1260.816406 843.269531 1262.570312 844.542969 1264.164062 C 845.980469 1265.921875 847.894531 1266.878906 849.492188 1268.3125 C 849.648438 1268.472656 849.96875 1268.472656 850.289062 1268.472656 C 850.449219 1268.472656 850.609375 1268.472656 850.765625 1268.472656 C 854.277344 1267.515625 856.828125 1264.324219 858.902344 1261.292969 C 860.019531 1259.539062 860.976562 1257.785156 861.617188 1255.871094 C 862.09375 1254.117188 862.734375 1252.523438 862.09375 1250.925781 Z M 862.09375 1250.925781 " fill-opacity="1" fill-rule="nonzero"/><path fill="#4b2610" d="M 789.820312 1278.839844 L 789.023438 1276.925781 C 775.621094 1273.257812 771.953125 1272.78125 758.070312 1272.621094 C 750.09375 1272.460938 740.042969 1270.546875 741.796875 1281.550781 C 743.234375 1290.644531 751.53125 1299.257812 756.636719 1306.753906 C 761.742188 1314.09375 768.761719 1328.289062 776.578125 1317.761719 C 781.207031 1311.539062 782.324219 1302.925781 784.875 1295.75 C 786.949219 1290.484375 790.300781 1284.582031 789.820312 1278.839844 Z M 789.820312 1278.839844 " fill-opacity="1" fill-rule="nonzero"/><path fill="#e07e31" d="M 777.855469 1272.140625 C 772.113281 1271.023438 766.367188 1271.183594 760.464844 1271.183594 C 756.636719 1271.183594 752.648438 1270.707031 748.976562 1271.183594 C 746.585938 1271.503906 742.914062 1273.417969 742.597656 1276.289062 C 745.46875 1274.054688 748.179688 1273.578125 751.53125 1273.097656 C 755.519531 1272.460938 761.421875 1273.578125 765.410156 1273.578125 C 769.238281 1273.578125 773.070312 1273.578125 776.898438 1274.054688 C 779.449219 1274.375 782.324219 1275.492188 784.875 1275.492188 C 783.28125 1273.738281 780.40625 1272.621094 777.855469 1272.140625 Z M 777.855469 1272.140625 " fill-opacity="1" fill-rule="nonzero"/><path fill="#ea853a" d="M 892.089844 1204.828125 C 892.25 1203.710938 890.972656 1200.683594 890.652344 1199.726562 C 884.75 1200.523438 880.601562 1208.816406 876.453125 1212.484375 C 870.390625 1217.910156 866.242188 1225.246094 860.019531 1230.351562 C 841.671875 1245.824219 816.464844 1230.351562 798.117188 1258.105469 C 794.605469 1263.367188 789.820312 1267.992188 785.195312 1272.460938 C 779.132812 1278.203125 780.726562 1280.117188 788.542969 1280.4375 C 793.96875 1280.59375 797.320312 1278.839844 802.425781 1276.765625 C 805.457031 1275.492188 810.722656 1272.621094 813.914062 1275.011719 C 816.304688 1276.765625 815.667969 1280.753906 816.144531 1283.625 C 820.132812 1281.871094 819.175781 1275.492188 822.367188 1273.097656 C 834.492188 1280.4375 830.984375 1261.773438 826.039062 1256.667969 C 823.007812 1253.636719 821.089844 1253.636719 823.964844 1249.011719 C 826.355469 1245.023438 829.707031 1245.183594 833.855469 1245.183594 C 837.523438 1245.183594 841.832031 1245.824219 845.34375 1245.183594 C 849.808594 1244.386719 853.480469 1241.355469 857.945312 1239.761719 C 861.933594 1238.324219 865.125 1234.976562 868.796875 1233.699219 C 873.421875 1232.265625 873.902344 1234.339844 877.09375 1229.710938 C 882.355469 1222.214844 886.503906 1213.28125 892.566406 1206.265625 Z M 892.089844 1204.828125 " fill-opacity="1" fill-rule="nonzero"/><path fill="#24221d" d="M 900.226562 1192.070312 C 896.238281 1190.792969 893.84375 1193.34375 892.089844 1196.855469 C 890.492188 1200.363281 887.621094 1205.46875 892.726562 1207.222656 C 897.671875 1208.976562 901.503906 1206.105469 905.332031 1203.871094 L 908.363281 1201.480469 C 908.523438 1197.652344 903.734375 1193.183594 900.226562 1192.070312 Z M 900.226562 1192.070312 " fill-opacity="1" fill-rule="nonzero"/><path fill="#35332d" d="M 904.054688 1197.492188 C 903.578125 1197.332031 903.257812 1197.492188 902.9375 1197.96875 C 901.660156 1200.042969 898.949219 1199.882812 896.875 1200.683594 C 894.164062 1201.480469 893.683594 1204.511719 896.875 1205.625 C 900.542969 1206.742188 910.277344 1201.320312 904.375 1197.8125 C 904.214844 1197.492188 904.214844 1197.492188 904.054688 1197.492188 Z M 904.054688 1197.492188 " fill-opacity="1" fill-rule="nonzero"/><path fill="#df7334" d="M 830.824219 1322.546875 C 830.824219 1317.121094 828.589844 1311.859375 826.515625 1306.914062 C 824.28125 1301.808594 823.007812 1296.386719 820.613281 1291.28125 C 819.816406 1289.6875 819.019531 1287.773438 817.742188 1286.335938 C 816.785156 1285.222656 815.347656 1284.582031 814.390625 1283.308594 L 812.953125 1282.351562 C 807.371094 1279 799.074219 1277.882812 792.851562 1276.925781 C 788.066406 1276.128906 783.121094 1275.332031 778.175781 1275.171875 C 771.152344 1275.011719 766.046875 1274.054688 756.15625 1276.925781 C 754.402344 1277.40625 751.691406 1278.523438 751.050781 1280.4375 C 749.773438 1284.421875 755.519531 1292.078125 757.433594 1295.109375 C 759.984375 1299.097656 762.699219 1303.085938 766.046875 1306.433594 C 771.632812 1311.859375 778.8125 1315.6875 785.671875 1319.195312 C 794.128906 1323.503906 802.105469 1328.605469 811.199219 1331.476562 C 815.507812 1332.753906 823.164062 1335.304688 827.472656 1333.234375 C 831.621094 1331.320312 830.824219 1326.054688 830.824219 1322.546875 Z M 830.824219 1322.546875 " fill-opacity="1" fill-rule="nonzero"/><path fill="#d8d6d6" d="M 811.839844 1297.980469 C 810.722656 1295.429688 806.414062 1288.25 806.414062 1288.25 C 804.339844 1286.335938 801.785156 1286.179688 799.074219 1285.539062 C 796.042969 1284.742188 793.011719 1283.464844 789.820312 1282.988281 C 784.714844 1282.191406 779.769531 1281.234375 774.503906 1281.234375 C 770.675781 1281.234375 766.050781 1279.796875 764.773438 1284.265625 C 763.65625 1288.09375 764.773438 1292.078125 767.007812 1295.269531 C 773.386719 1304.519531 784.078125 1308.507812 795.40625 1314.25 C 799.871094 1316.484375 821.890625 1325.257812 822.6875 1324.621094 C 823.804688 1323.980469 813.753906 1302.605469 811.839844 1297.980469 Z M 811.839844 1297.980469 " fill-opacity="1" fill-rule="nonzero"/><path fill="#4b2610" d="M 818.378906 1329.722656 C 801.46875 1322.546875 783.121094 1316.644531 768.761719 1304.679688 C 765.730469 1302.128906 763.335938 1299.097656 761.101562 1296.066406 C 759.507812 1293.835938 757.113281 1291.761719 756.636719 1289.050781 C 756.15625 1286.65625 756.953125 1283.785156 758.710938 1282.03125 C 760.625 1280.117188 766.367188 1276.765625 768.761719 1274.695312 C 764.933594 1274.695312 759.984375 1275.96875 756.636719 1276.609375 C 752.488281 1277.40625 750.734375 1278.679688 750.890625 1282.988281 C 751.210938 1289.050781 754.242188 1294.472656 758.230469 1299.097656 C 761.261719 1302.605469 763.976562 1306.59375 767.484375 1309.785156 C 770.355469 1312.335938 773.867188 1313.933594 777.21875 1315.527344 C 784.875 1319.035156 792.054688 1323.023438 799.394531 1327.332031 C 805.457031 1330.839844 811.519531 1335.625 819.019531 1335.304688 C 820.453125 1335.304688 825.398438 1335.304688 825.398438 1333.234375 C 825.398438 1331.320312 819.816406 1330.363281 818.378906 1329.722656 Z M 818.378906 1329.722656 " fill-opacity="1" fill-rule="nonzero"/><path fill="#37281c" d="M 807.050781 1299.097656 C 802.425781 1297.820312 797.160156 1299.578125 793.011719 1296.226562 C 791.257812 1294.792969 791.734375 1293.992188 789.183594 1294.3125 C 786.3125 1294.632812 786.152344 1295.589844 783.917969 1293.195312 C 782.640625 1291.761719 783.28125 1291.601562 780.726562 1291.28125 C 779.769531 1291.28125 777.695312 1291.761719 776.898438 1291.121094 C 776.261719 1290.644531 776.417969 1289.527344 776.101562 1289.050781 C 774.664062 1287.613281 773.867188 1288.890625 771.632812 1288.890625 C 769.71875 1288.890625 769.082031 1287.613281 767.484375 1287.292969 C 767.164062 1292.878906 774.34375 1296.707031 778.332031 1299.097656 C 783.121094 1301.96875 786.628906 1304.839844 791.894531 1306.59375 C 795.085938 1307.550781 813.273438 1317.28125 814.550781 1316.484375 C 816.945312 1314.890625 810.082031 1301.011719 808.328125 1299.578125 " fill-opacity="1" fill-rule="nonzero"/><path fill="#e07e31" d="M 767.484375 1309.785156 C 766.207031 1308.667969 765.089844 1307.550781 763.976562 1306.433594 C 762.859375 1305.320312 761.742188 1304.203125 760.625 1303.085938 C 758.390625 1300.691406 756.316406 1298.460938 754.242188 1295.90625 C 753.285156 1294.632812 752.167969 1293.355469 751.53125 1291.921875 C 750.734375 1290.484375 750.253906 1288.890625 749.933594 1287.292969 C 749.933594 1286.816406 749.773438 1286.496094 749.773438 1286.019531 C 749.773438 1285.539062 749.773438 1285.222656 749.933594 1284.742188 C 750.09375 1283.945312 750.253906 1283.148438 750.414062 1282.351562 C 750.574219 1281.550781 750.890625 1280.753906 751.050781 1280.117188 C 751.210938 1279.796875 751.371094 1279.320312 751.53125 1279 C 751.691406 1278.679688 751.847656 1278.203125 752.167969 1277.882812 C 753.285156 1277.085938 754.5625 1276.609375 755.679688 1276.128906 C 756.953125 1275.652344 758.230469 1275.332031 759.507812 1275.011719 C 760.144531 1274.851562 760.785156 1274.851562 761.421875 1274.695312 C 762.058594 1274.535156 762.699219 1274.535156 763.335938 1274.535156 C 763.976562 1274.535156 764.613281 1274.535156 765.25 1274.535156 C 765.890625 1274.535156 766.527344 1274.535156 767.164062 1274.695312 L 765.25 1274.695312 C 764.613281 1274.695312 763.976562 1274.695312 763.335938 1274.851562 C 762.058594 1275.011719 760.785156 1275.171875 759.507812 1275.492188 C 758.230469 1275.808594 756.953125 1276.128906 755.839844 1276.609375 C 754.722656 1277.085938 753.445312 1277.722656 752.488281 1278.363281 L 752.488281 1278.203125 C 752.167969 1278.839844 751.847656 1279.636719 751.691406 1280.277344 C 751.371094 1281.074219 751.210938 1281.710938 751.050781 1282.507812 C 750.890625 1283.308594 750.734375 1284.105469 750.574219 1284.742188 C 750.574219 1285.0625 750.414062 1285.539062 750.414062 1285.859375 C 750.414062 1286.179688 750.414062 1286.65625 750.574219 1286.976562 C 750.890625 1288.570312 751.371094 1290.007812 752.007812 1291.28125 C 752.808594 1292.71875 753.765625 1293.835938 754.722656 1295.109375 C 756.636719 1297.664062 758.710938 1300.054688 760.785156 1302.449219 C 763.175781 1305.160156 765.25 1307.550781 767.484375 1309.785156 Z M 767.484375 1309.785156 " fill-opacity="1" fill-rule="nonzero"/><path fill="#ea853a" d="M 768.761719 1324.777344 L 765.890625 1321.429688 C 765.570312 1325.257812 766.050781 1327.808594 765.570312 1331.796875 C 764.933594 1337.378906 763.496094 1342.644531 762.378906 1348.226562 C 761.101562 1354.449219 759.027344 1360.507812 755.839844 1366.089844 C 753.765625 1369.441406 751.847656 1373.109375 749.773438 1376.300781 C 748.5 1378.375 745.46875 1381.246094 745.628906 1383.636719 C 751.210938 1384.117188 753.765625 1379.488281 755.839844 1375.34375 C 759.027344 1369.121094 762.539062 1362.105469 763.816406 1355.246094 C 763.976562 1354.289062 763.976562 1352.691406 764.613281 1351.894531 C 766.050781 1350.460938 765.890625 1352.054688 766.847656 1351.734375 C 769.71875 1350.777344 770.515625 1345.675781 770.675781 1342.644531 C 770.835938 1334.667969 771.632812 1331.957031 768.761719 1324.777344 Z M 768.761719 1324.777344 " fill-opacity="1" fill-rule="nonzero"/><path fill="#d4d7d1" d="M 897.195312 1396.875 C 896.714844 1398.152344 896.238281 1399.429688 895.917969 1400.863281 C 896.078125 1400.703125 896.078125 1400.546875 896.238281 1400.386719 Z M 897.195312 1396.875 " fill-opacity="1" fill-rule="nonzero"/><path fill="#d4d7d1" d="M 867.679688 1435.636719 C 865.921875 1439.785156 867.996094 1437.871094 869.273438 1440.101562 C 870.871094 1443.292969 871.347656 1442.816406 868.476562 1447.121094 C 865.605469 1451.109375 862.09375 1454.617188 858.585938 1457.96875 C 851.722656 1464.667969 842.628906 1470.089844 836.566406 1477.269531 C 840.714844 1479.023438 845.820312 1475.511719 845.34375 1482.054688 C 845.023438 1485.722656 839.917969 1491.785156 837.84375 1494.972656 C 835.132812 1499.28125 832.101562 1503.109375 828.589844 1506.9375 C 824.601562 1511.082031 817.261719 1515.550781 815.027344 1520.65625 C 819.65625 1522.089844 823.007812 1518.261719 822.207031 1524.164062 C 821.890625 1527.035156 818.859375 1530.382812 817.101562 1532.617188 C 811.039062 1540.59375 804.816406 1549.207031 797.957031 1556.542969 C 792.691406 1562.125 788.066406 1568.1875 782.960938 1573.929688 C 779.609375 1577.757812 773.707031 1581.265625 772.269531 1586.050781 C 793.171875 1589.082031 823.007812 1562.285156 835.929688 1550.480469 C 842.3125 1544.738281 846.460938 1537.882812 850.609375 1530.382812 C 854.914062 1522.886719 857.308594 1513.636719 861.933594 1506.617188 C 862.253906 1507.734375 862.890625 1508.371094 862.890625 1509.648438 C 866.402344 1507.734375 867.519531 1498.640625 868.636719 1494.65625 C 870.230469 1489.550781 871.667969 1484.285156 873.101562 1479.023438 C 875.496094 1470.726562 877.730469 1462.273438 880.761719 1454.300781 C 884.429688 1444.730469 888.898438 1435.476562 891.769531 1425.429688 C 894.003906 1417.453125 893.84375 1408.519531 895.917969 1400.546875 C 890.335938 1410.117188 883.472656 1420.164062 875.816406 1427.980469 C 873.582031 1430.371094 868.957031 1432.765625 867.679688 1435.636719 Z M 867.679688 1435.636719 " fill-opacity="1" fill-rule="nonzero"/><path fill="#d36c28" d="M 772.589844 1574.886719 C 783.917969 1561.167969 797 1549.683594 802.742188 1532.296875 C 809.605469 1511.722656 804.976562 1492.101562 790.140625 1476.628906 C 774.984375 1460.679688 745.628906 1453.660156 724.566406 1460.199219 C 705.902344 1466.101562 694.253906 1480.617188 684.679688 1496.726562 L 682.925781 1503.90625 C 682.128906 1523.683594 695.691406 1541.550781 698.878906 1560.851562 C 700.796875 1572.972656 699.679688 1586.210938 696.964844 1598.015625 C 695.691406 1603.28125 692.976562 1609.5 693.933594 1615.082031 C 695.050781 1621.78125 701.59375 1627.046875 703.507812 1633.90625 C 707.65625 1648.578125 709.730469 1671.230469 712.761719 1686.222656 C 717.226562 1708.875 714.675781 1725.941406 719.460938 1748.429688 C 719.460938 1748.429688 720.578125 1774.113281 726.800781 1779.695312 C 736.214844 1788.308594 751.847656 1793.570312 763.335938 1788.785156 C 768.601562 1786.554688 773.070312 1787.671875 776.417969 1784.800781 C 782.164062 1780.015625 781.046875 1775.070312 778.492188 1769.964844 C 778.492188 1769.964844 778.492188 1769.804688 778.492188 1769.804688 C 778.8125 1766.613281 776.738281 1763.425781 773.867188 1760.871094 C 772.910156 1759.117188 771.792969 1757.683594 770.355469 1756.40625 C 766.847656 1753.375 761.742188 1752.738281 757.59375 1751.144531 C 757.273438 1750.984375 756.953125 1750.824219 756.636719 1750.824219 C 753.921875 1749.070312 752.167969 1747.316406 751.210938 1743.964844 C 751.050781 1743.167969 751.050781 1742.210938 750.890625 1741.253906 C 750.734375 1739.019531 750.414062 1736.789062 750.09375 1734.554688 C 750.09375 1731.523438 750.09375 1728.492188 749.773438 1725.621094 C 748.179688 1714.933594 745.46875 1704.246094 744.828125 1693.402344 C 743.871094 1676.972656 744.828125 1660.222656 744.828125 1643.953125 C 744.828125 1631.992188 743.074219 1618.75 747.222656 1607.265625 C 751.847656 1593.070312 763.816406 1585.574219 772.589844 1574.886719 Z M 772.589844 1574.886719 " fill-opacity="1" fill-rule="nonzero"/><path fill="#d36c28" d="M 652.933594 1723.386719 C 648.464844 1723.070312 642.722656 1725.621094 638.890625 1727.535156 C 633.148438 1730.40625 627.40625 1732.320312 621.5 1734.554688 C 606.664062 1732.640625 582.890625 1721.316406 573.480469 1710.148438 C 565.023438 1700.261719 573.320312 1698.824219 581.933594 1694.039062 C 597.25 1685.746094 614.003906 1679.046875 628.519531 1669.476562 C 637.933594 1663.253906 647.507812 1654.164062 655.007812 1645.867188 C 665.214844 1634.703125 680.054688 1607.265625 671.28125 1592.113281 L 667.609375 1582.703125 C 659.3125 1572.335938 632.351562 1584.457031 621.5 1586.210938 C 606.664062 1588.605469 591.828125 1592.59375 577.46875 1596.421875 C 566.9375 1599.292969 554.972656 1602.640625 546.515625 1609.980469 C 534.390625 1620.507812 537.742188 1638.53125 546.035156 1650.175781 C 552.417969 1659.105469 555.769531 1664.371094 551.78125 1675.21875 C 548.109375 1685.265625 541.570312 1693.082031 534.230469 1700.578125 C 530.5625 1704.40625 521.148438 1712.0625 521.308594 1717.964844 C 521.46875 1723.386719 528.648438 1729.929688 532.953125 1732.480469 C 542.527344 1738.0625 553.375 1742.050781 564.066406 1745.082031 C 576.828125 1748.589844 589.753906 1751.78125 602.195312 1756.085938 C 606.183594 1757.523438 609.058594 1758.320312 611.769531 1758.800781 C 613.363281 1759.597656 614.960938 1759.914062 616.714844 1760.234375 C 624.375 1761.671875 632.511719 1758.320312 640.007812 1755.929688 C 643.359375 1755.289062 646.867188 1754.492188 649.902344 1753.375 C 657.878906 1751.78125 666.8125 1750.34375 668.726562 1742.6875 C 671.28125 1732.960938 663.300781 1724.1875 652.933594 1723.386719 Z M 652.933594 1723.386719 " fill-opacity="1" fill-rule="nonzero"/><path fill="#c45d24" d="M 659.3125 1581.90625 L 661.226562 1584.457031 C 666.175781 1588.285156 666.652344 1594.984375 666.652344 1600.886719 C 666.652344 1607.425781 663.621094 1609.820312 658.355469 1613.964844 C 656.441406 1615.402344 649.902344 1617.792969 649.101562 1620.507812 C 648.464844 1622.578125 651.015625 1624.652344 650.539062 1627.363281 C 649.902344 1631.992188 643.359375 1635.5 640.167969 1637.890625 C 632.191406 1643.953125 623.894531 1649.378906 615.757812 1655.121094 C 609.214844 1659.746094 605.386719 1664.371094 602.355469 1671.390625 C 600.28125 1676.175781 596.773438 1678.566406 592.464844 1682.234375 C 584.648438 1688.777344 572.839844 1689.734375 571.246094 1700.261719 C 581.617188 1695.632812 589.910156 1692.445312 595.496094 1688.617188 C 600.921875 1684.949219 601.238281 1685.90625 607.140625 1683.03125 C 618.628906 1677.769531 629.957031 1676.015625 639.53125 1667.082031 C 656.921875 1650.652344 675.585938 1630.078125 677.023438 1604.554688 C 677.820312 1592.433594 673.671875 1580.628906 659.3125 1581.90625 Z M 659.3125 1581.90625 " fill-opacity="1" fill-rule="nonzero"/><path fill="#ea853a" d="M 448.875 1656.078125 L 450.789062 1648.421875 C 442.171875 1660.222656 433.078125 1683.351562 426.855469 1696.433594 C 409.46875 1732.640625 401.171875 1791.816406 391.597656 1818.457031 C 398.777344 1806.492188 402.925781 1798.835938 409.785156 1786.554688 C 414.890625 1777.460938 420.316406 1768.210938 422.867188 1757.84375 C 424.144531 1752.738281 423.507812 1738.703125 430.527344 1738.0625 C 431.804688 1740.296875 432.917969 1742.210938 434.835938 1743.804688 C 439.941406 1736.628906 442.015625 1724.347656 442.652344 1715.574219 C 443.128906 1709.351562 440.097656 1694.199219 444.246094 1689.09375 C 460.042969 1700.101562 447.121094 1660.222656 448.875 1656.078125 Z M 448.875 1656.078125 " fill-opacity="1" fill-rule="nonzero"/><path fill="#bd6226" d="M 772.113281 1758 C 771.632812 1757.363281 770.996094 1756.566406 770.515625 1755.929688 C 769.558594 1754.8125 768.121094 1754.652344 766.6875 1754.171875 C 764.292969 1753.375 761.902344 1752.898438 759.667969 1752.257812 C 758.390625 1751.941406 756.953125 1751.460938 755.839844 1750.824219 C 755.359375 1750.503906 754.082031 1750.1875 753.765625 1749.867188 C 752.648438 1748.910156 752.007812 1746.199219 751.53125 1744.921875 C 751.210938 1743.804688 751.050781 1742.6875 750.890625 1741.730469 C 750.414062 1738.0625 750.253906 1734.234375 749.933594 1730.566406 C 749.773438 1728.175781 749.617188 1725.941406 749.617188 1723.546875 C 749.617188 1722.113281 749.457031 1721.792969 749.136719 1720.359375 L 748.179688 1716.371094 C 748.5 1718.601562 748.976562 1723.867188 748.816406 1726.101562 C 748.660156 1728.652344 748.660156 1731.523438 748.019531 1734.074219 C 747.382812 1736.308594 745.945312 1737.105469 746.425781 1739.5 C 746.742188 1740.773438 747.382812 1742.847656 746.902344 1744.125 C 746.585938 1744.921875 745.945312 1745.402344 745.46875 1746.039062 C 744.191406 1747.632812 742.914062 1749.230469 741.796875 1751.144531 C 739.722656 1754.492188 736.53125 1756.726562 733.820312 1759.597656 C 731.269531 1762.148438 731.425781 1763.742188 732.703125 1767.09375 C 733.5 1769.167969 733.34375 1769.644531 735.574219 1768.847656 C 736.851562 1768.371094 737.96875 1767.730469 739.246094 1766.933594 C 741.480469 1765.5 743.710938 1764.0625 745.945312 1762.785156 C 747.222656 1761.988281 748.5 1761.191406 749.933594 1760.394531 C 750.253906 1760.234375 750.734375 1759.757812 751.050781 1759.757812 C 752.328125 1759.597656 752.167969 1760.554688 752.648438 1761.351562 C 753.285156 1762.628906 754.722656 1762.148438 756.15625 1761.511719 C 759.347656 1760.074219 762.699219 1759.277344 766.207031 1759.914062 C 769.082031 1760.394531 771.632812 1760.234375 774.34375 1761.828125 C 774.664062 1760.871094 772.75 1758.800781 772.113281 1758 Z M 772.113281 1758 " fill-opacity="1" fill-rule="nonzero"/><path fill="#bd6226" d="M 778.492188 1771.242188 C 777.855469 1769.804688 777.695312 1768.527344 777.21875 1767.09375 C 776.738281 1765.65625 776.738281 1764.699219 776.101562 1763.265625 L 774.984375 1762.785156 C 773.707031 1762.785156 764.933594 1761.988281 764.292969 1763.265625 C 763.175781 1765.65625 773.707031 1767.574219 773.546875 1771.242188 C 770.996094 1772.199219 768.28125 1770.125 765.890625 1770.125 C 761.261719 1769.964844 768.121094 1773.792969 768.921875 1774.75 C 770.039062 1776.027344 773.226562 1779.214844 773.226562 1781.128906 C 773.226562 1783.683594 769.398438 1783.363281 767.804688 1782.085938 C 765.730469 1780.332031 765.570312 1777.941406 763.015625 1776.34375 C 759.667969 1774.273438 756.476562 1773.316406 752.488281 1773.316406 C 751.050781 1773.316406 745.945312 1774.75 747.859375 1776.824219 C 748.5 1777.460938 750.574219 1777.460938 751.371094 1777.78125 C 753.285156 1778.578125 754.402344 1779.855469 755.519531 1781.609375 C 756.953125 1783.523438 758.070312 1785.914062 755.839844 1787.988281 C 754.242188 1789.425781 752.007812 1789.265625 749.933594 1788.785156 C 749.136719 1788.628906 746.105469 1787.671875 745.785156 1788.785156 C 745.46875 1790.222656 750.734375 1790.542969 751.371094 1790.699219 C 753.765625 1790.859375 756.316406 1790.859375 758.550781 1790.542969 C 761.421875 1790.0625 763.976562 1787.988281 766.847656 1787.191406 C 770.675781 1786.234375 775.78125 1785.914062 778.332031 1782.40625 C 780.886719 1779.375 780.089844 1774.273438 778.492188 1771.242188 Z M 778.492188 1771.242188 " fill-opacity="1" fill-rule="nonzero"/><path fill="#743803" d="M 766.6875 1785.914062 C 766.527344 1784.480469 765.730469 1782.886719 765.089844 1781.609375 C 763.976562 1779.058594 763.015625 1777.300781 760.304688 1776.503906 C 757.910156 1775.707031 752.964844 1775.546875 750.414062 1775.546875 C 751.050781 1777.78125 752.328125 1777.460938 754.242188 1777.460938 C 755.996094 1777.460938 756.796875 1777.460938 758.070312 1778.898438 C 759.507812 1780.492188 760.304688 1782.246094 760.464844 1784.480469 C 760.464844 1785.277344 760.625 1786.234375 760.304688 1786.871094 C 759.984375 1787.988281 759.027344 1788.628906 758.710938 1789.742188 C 760.304688 1790.382812 763.175781 1788.308594 764.773438 1787.988281 C 766.207031 1787.511719 766.847656 1787.671875 766.6875 1785.914062 Z M 766.6875 1785.914062 " fill-opacity="1" fill-rule="nonzero"/><path fill="#743803" d="M 765.570312 1770.285156 C 767.164062 1770.285156 768.921875 1770.761719 770.515625 1771.082031 C 771.472656 1771.242188 772.269531 1771.402344 773.070312 1771.878906 C 774.664062 1772.675781 775.300781 1774.429688 775.78125 1776.027344 C 776.738281 1778.578125 776.738281 1781.289062 776.898438 1784 C 780.886719 1782.246094 780.25 1777.460938 778.492188 1774.429688 C 775.621094 1769.007812 770.675781 1770.285156 765.570312 1770.285156 " fill-opacity="1" fill-rule="nonzero"/><path fill="#743803" d="M 778.492188 1767.09375 C 777.855469 1765.5 776.738281 1765.019531 775.300781 1764.542969 C 771.953125 1763.585938 768.601562 1763.265625 763.816406 1763.265625 C 766.6875 1763.265625 769.558594 1764.222656 772.75 1764.699219 C 773.386719 1764.859375 774.34375 1765.339844 774.984375 1765.816406 C 775.621094 1766.296875 776.101562 1766.457031 776.578125 1767.09375 C 777.058594 1767.574219 777.855469 1768.6875 778.332031 1769.804688 C 778.652344 1769.167969 778.8125 1767.890625 778.492188 1767.09375 Z M 778.492188 1767.09375 " fill-opacity="1" fill-rule="nonzero"/><path fill="#743803" d="M 768.601562 1754.492188 C 767.324219 1753.695312 767.324219 1753.695312 766.050781 1752.898438 C 763.816406 1751.460938 761.261719 1750.34375 758.550781 1750.34375 C 755.519531 1750.34375 755.359375 1749.707031 753.605469 1747.632812 C 753.125 1746.996094 752.328125 1746.515625 751.847656 1745.878906 C 751.371094 1745.082031 751.371094 1743.804688 750.734375 1741.890625 L 750.734375 1742.050781 C 750.734375 1742.6875 750.734375 1744.761719 750.734375 1745.402344 C 750.734375 1745.71875 750.890625 1746.199219 750.734375 1746.675781 C 750.574219 1747.472656 749.773438 1747.632812 749.457031 1748.273438 C 748.816406 1749.546875 750.09375 1749.386719 750.253906 1750.503906 C 750.414062 1751.941406 747.542969 1753.058594 746.585938 1753.855469 C 745.945312 1754.332031 745.628906 1754.8125 744.988281 1755.289062 C 744.191406 1756.085938 742.597656 1756.566406 741.957031 1757.523438 C 741.320312 1758.320312 741.636719 1758.800781 742.753906 1758.800781 C 744.828125 1758.800781 747.859375 1757.363281 749.773438 1756.566406 C 752.488281 1755.289062 755.359375 1754.015625 758.390625 1753.855469 C 760.945312 1753.855469 763.496094 1754.332031 765.730469 1755.289062 C 767.324219 1755.929688 769.238281 1756.886719 770.835938 1757.203125 C 771.15625 1756.246094 769.238281 1754.972656 768.601562 1754.492188 Z M 768.601562 1754.492188 " fill-opacity="1" fill-rule="nonzero"/><path fill="#bd6226" d="M 723.449219 1762.308594 C 723.449219 1757.683594 724.089844 1753.375 725.683594 1748.910156 C 728.078125 1742.371094 730.949219 1736.945312 729.511719 1729.929688 C 728.714844 1726.101562 727.4375 1722.429688 727.4375 1718.601562 C 727.597656 1716.050781 727.917969 1713.339844 727.597656 1710.628906 C 726.800781 1702.652344 718.984375 1696.273438 721.058594 1688.296875 C 723.132812 1680.003906 724.25 1672.984375 720.578125 1665.007812 C 718.34375 1660.0625 715.472656 1655.277344 712.921875 1650.492188 C 710.527344 1646.027344 708.613281 1642.996094 705.902344 1638.691406 L 704.304688 1635.820312 C 704.304688 1644.910156 706.539062 1653.046875 708.933594 1661.660156 C 711.804688 1672.027344 709.570312 1682.554688 711.164062 1693.242188 C 712.28125 1701.535156 713.398438 1709.832031 715.632812 1717.964844 C 717.546875 1724.664062 716.75 1731.523438 717.707031 1738.222656 C 718.34375 1742.6875 719.460938 1747.15625 719.78125 1751.621094 C 719.941406 1755.449219 720.101562 1759.277344 720.738281 1763.265625 C 721.058594 1765.660156 722.8125 1780.972656 727.597656 1778.898438 C 730.46875 1777.78125 727.121094 1772.835938 726.003906 1771.402344 C 723.769531 1768.53125 723.449219 1765.976562 723.449219 1762.308594 Z M 723.449219 1762.308594 " fill-opacity="1" fill-rule="nonzero"/><path fill="#884621" d="M 693.773438 1614.605469 C 695.847656 1615.878906 697.285156 1620.507812 699.039062 1622.421875 C 700.953125 1624.492188 702.390625 1626.25 703.667969 1628.800781 C 706.378906 1634.0625 710.6875 1644.433594 712.601562 1650.015625 C 712.28125 1647.621094 705.742188 1639.007812 704.304688 1636.933594 C 702.550781 1634.382812 702.550781 1632.308594 700.796875 1629.757812 C 697.765625 1625.292969 693.296875 1620.1875 693.773438 1614.605469 " fill-opacity="1" fill-rule="nonzero"/><path fill="#aa5922" d="M 667.449219 1731.203125 C 666.332031 1728.015625 663.144531 1726.101562 659.792969 1725.144531 C 660.589844 1727.21875 664.257812 1729.449219 662.984375 1731.683594 C 662.027344 1733.4375 659.792969 1731.203125 658.355469 1730.886719 C 658.355469 1732.960938 661.070312 1735.511719 657.398438 1735.832031 C 655.484375 1735.988281 652.773438 1734.875 650.539062 1734.875 C 647.828125 1734.875 644.953125 1734.554688 642.402344 1734.875 C 639.847656 1735.191406 637.617188 1736.46875 635.0625 1737.265625 C 629.636719 1739.339844 629.320312 1742.210938 633.308594 1740.457031 C 638.890625 1738.0625 647.027344 1736.945312 653.089844 1738.0625 C 654.847656 1738.382812 658.675781 1740.136719 659.152344 1742.050781 C 659.792969 1744.125 658.675781 1743.007812 658.039062 1743.964844 C 657.71875 1744.445312 656.921875 1744.125 656.761719 1745.242188 C 656.601562 1746.039062 657.71875 1746.039062 657.71875 1746.515625 C 657.878906 1747.953125 658.675781 1747.632812 657.238281 1749.070312 C 656.441406 1749.867188 654.6875 1750.34375 653.730469 1750.664062 C 651.335938 1751.621094 647.347656 1752.257812 645.753906 1754.492188 C 648.304688 1755.128906 653.730469 1754.015625 656.28125 1753.214844 C 659.152344 1752.257812 661.707031 1752.101562 664.417969 1750.664062 C 670.164062 1747.15625 671.4375 1742.6875 667.449219 1731.203125 Z M 667.449219 1731.203125 " fill-opacity="1" fill-rule="nonzero"/><path fill="#743803" d="M 665.375 1743.328125 C 663.941406 1742.210938 664.738281 1740.296875 660.269531 1738.703125 L 658.515625 1738.382812 C 658.355469 1738.382812 658.195312 1738.542969 658.355469 1738.703125 C 661.386719 1740.773438 663.460938 1746.039062 662.183594 1748.113281 C 661.226562 1749.707031 658.675781 1750.34375 657.078125 1750.984375 C 655.644531 1751.621094 654.207031 1752.578125 652.773438 1753.375 C 655.003906 1754.015625 658.515625 1752.101562 660.75 1751.300781 C 662.824219 1750.664062 665.855469 1750.34375 666.652344 1748.113281 C 667.609375 1746.199219 667.132812 1744.601562 665.375 1743.328125 Z M 665.375 1743.328125 " fill-opacity="1" fill-rule="nonzero"/><path fill="#743803" d="M 665.855469 1734.875 C 667.449219 1735.191406 668.25 1737.746094 668.886719 1739.019531 C 669.363281 1739.816406 669.683594 1742.050781 669.523438 1743.007812 C 669.84375 1742.210938 669.523438 1740.296875 669.523438 1739.339844 C 669.523438 1738.542969 669.523438 1737.746094 669.207031 1736.945312 C 668.40625 1735.671875 667.289062 1735.03125 665.855469 1734.875 " fill-opacity="1" fill-rule="nonzero"/><path fill="#bd6226" d="M 581.773438 1743.328125 C 575.871094 1739.5 569.96875 1735.511719 563.585938 1732.480469 C 558.480469 1729.929688 552.898438 1726.578125 547.3125 1725.941406 C 543.644531 1725.460938 538.539062 1726.578125 534.230469 1726.898438 C 533.433594 1727.058594 533.273438 1728.175781 534.070312 1728.332031 C 538.859375 1729.769531 544.921875 1730.886719 548.269531 1732.480469 C 553.695312 1735.03125 559.121094 1737.425781 564.542969 1739.660156 C 569.648438 1741.890625 574.914062 1744.125 580.339844 1746.199219 C 582.09375 1746.835938 583.371094 1744.285156 581.773438 1743.328125 Z M 581.773438 1743.328125 " fill-opacity="1" fill-rule="nonzero"/><path fill="#743803" d="M 651.816406 1737.105469 C 649.742188 1737.105469 647.347656 1736.789062 645.433594 1737.746094 C 649.101562 1737.105469 653.089844 1737.746094 656.441406 1737.902344 C 656.601562 1737.902344 656.601562 1737.746094 656.441406 1737.746094 C 654.847656 1737.265625 653.089844 1737.105469 651.816406 1737.105469 Z M 651.816406 1737.105469 " fill-opacity="1" fill-rule="nonzero"/><path fill="#743803" d="M 657.078125 1730.566406 C 654.367188 1730.40625 651.972656 1730.726562 649.261719 1730.886719 C 649.261719 1730.886719 649.261719 1731.046875 649.261719 1731.046875 C 651.972656 1731.203125 656.28125 1731.203125 658.355469 1731.683594 C 660.75 1732.320312 662.027344 1732.960938 664.417969 1733.757812 C 664.417969 1733.757812 664.578125 1733.757812 664.417969 1733.757812 C 664.101562 1731.84375 658.515625 1730.566406 657.078125 1730.566406 Z M 657.078125 1730.566406 " fill-opacity="1" fill-rule="nonzero"/><path fill="#743803" d="M 490.675781 1667.71875 C 492.429688 1672.347656 491.472656 1678.726562 491.472656 1683.671875 C 491.472656 1686.542969 491.632812 1688.933594 492.429688 1691.648438 C 493.066406 1693.402344 493.867188 1696.75 495.78125 1697.546875 C 495.941406 1696.75 495.78125 1695.792969 495.78125 1694.996094 C 498.652344 1698.503906 500.246094 1702.972656 504.714844 1704.886719 C 504.554688 1704.246094 504.234375 1703.609375 503.917969 1702.972656 C 506.789062 1706.160156 510.140625 1708.554688 513.648438 1710.945312 C 515.882812 1712.703125 520.191406 1714.773438 521.308594 1717.488281 C 521.625 1716.53125 520.351562 1714.457031 519.871094 1713.660156 C 518.753906 1711.105469 517.636719 1708.714844 516.519531 1706.160156 C 514.605469 1702.492188 513.011719 1698.664062 510.617188 1695.316406 C 506.152344 1688.617188 500.566406 1682.714844 496.257812 1676.015625 C 494.984375 1674.101562 493.226562 1668.199219 490.675781 1667.71875 " fill-opacity="1" fill-rule="nonzero"/><path fill="#bd6226" d="M 558.480469 1676.332031 C 558.164062 1676.175781 558.003906 1676.332031 557.84375 1676.652344 C 557.363281 1678.40625 555.929688 1680.160156 554.972656 1681.757812 C 553.214844 1684.949219 551.140625 1687.820312 549.066406 1690.691406 C 546.035156 1694.996094 543.003906 1698.984375 539.175781 1702.332031 C 536.144531 1705.046875 532.953125 1707.597656 529.761719 1709.988281 C 528.167969 1711.105469 525.457031 1712.859375 528.804688 1713.816406 C 531.199219 1714.457031 533.753906 1712.542969 535.824219 1711.585938 C 537.421875 1710.789062 539.496094 1710.789062 540.929688 1709.832031 C 543.164062 1708.394531 544.601562 1705.363281 545.878906 1703.289062 C 547.953125 1699.941406 550.027344 1696.75 551.78125 1693.242188 C 554.492188 1687.820312 558.003906 1682.875 558.960938 1676.8125 C 558.800781 1676.652344 558.640625 1676.332031 558.480469 1676.332031 Z M 558.480469 1676.332031 " fill-opacity="1" fill-rule="nonzero"/><path fill="#c45d24" d="M 565.023438 1653.523438 C 560.554688 1656.714844 555.449219 1661.5 549.386719 1661.339844 C 537.101562 1661.179688 545.238281 1651.929688 538.21875 1648.738281 C 535.824219 1647.621094 527.050781 1654.164062 522.105469 1652.566406 C 515.5625 1650.492188 513.96875 1644.910156 512.371094 1638.847656 L 515.246094 1632.949219 C 516.042969 1620.664062 492.429688 1642.039062 490.675781 1650.8125 C 489.71875 1655.757812 490.675781 1662.136719 493.546875 1666.285156 C 498.972656 1673.621094 503.917969 1668.835938 509.980469 1672.347656 C 516.679688 1676.175781 515.5625 1680.640625 524.5 1681.917969 C 529.761719 1682.714844 536.304688 1682.234375 541.25 1680.960938 C 552.101562 1678.246094 566.9375 1665.488281 565.023438 1653.523438 Z M 565.023438 1653.523438 " fill-opacity="1" fill-rule="nonzero"/><path fill="#743803" d="M 526.730469 1778.101562 C 526.730469 1770.125 523.382812 1764.859375 517.476562 1760.554688 C 522.265625 1764.859375 520.191406 1778.257812 520.191406 1783.683594 C 520.191406 1793.890625 517 1803.140625 513.96875 1812.714844 C 511.414062 1820.371094 509.820312 1829.621094 509.339844 1837.753906 C 509.183594 1840.945312 509.023438 1844.296875 509.980469 1847.328125 C 510.777344 1849.71875 512.53125 1851.792969 513.171875 1854.027344 C 517 1849.71875 520.988281 1821.964844 522.105469 1815.105469 C 523.222656 1808.085938 524.019531 1800.910156 525.613281 1793.890625 C 527.050781 1788.785156 526.730469 1783.523438 526.730469 1778.101562 Z M 526.730469 1778.101562 " fill-opacity="1" fill-rule="nonzero"/><path fill="#743803" d="M 517.636719 1760.554688 C 517.320312 1760.234375 517 1760.074219 516.679688 1759.914062 C 517 1760.234375 517.320312 1760.394531 517.636719 1760.554688 Z M 517.636719 1760.554688 " fill-opacity="1" fill-rule="nonzero"/><g fill="#ffbd59" fill-opacity="1"><g transform="translate(1843.012868, 1425.720531)"><g><path d="M 113.453125 0 L 14.3125 0 L 165.375 -437.5625 L 284.59375 -437.5625 L 435.4375 0 L 336.296875 0 L 303.8125 -99.78125 L 145.921875 -99.78125 Z M 169.421875 -172 L 280.53125 -172 L 226.6875 -337.578125 L 223.265625 -337.578125 Z M 169.421875 -172 "/></g></g></g><g fill="#ffbd59" fill-opacity="1"><g transform="translate(2305.00705, 1425.720531)"><g><path d="M 308.953125 -437.5625 L 400.8125 -437.5625 L 400.8125 -148.28125 C 400.8125 -115.226562 393.050781 -87.203125 377.53125 -64.203125 C 362.007812 -41.203125 340.609375 -23.71875 313.328125 -11.75 C 286.046875 0.21875 254.742188 6.203125 219.421875 6.203125 C 184.097656 6.203125 152.757812 0.21875 125.40625 -11.75 C 98.0625 -23.71875 76.660156 -41.203125 61.203125 -64.203125 C 45.753906 -87.203125 38.03125 -115.226562 38.03125 -148.28125 L 38.03125 -437.5625 L 130.546875 -437.5625 L 130.546875 -151.484375 C 130.546875 -128.117188 138.984375 -109.742188 155.859375 -96.359375 C 172.742188 -82.972656 193.929688 -76.28125 219.421875 -76.28125 C 245.347656 -76.28125 266.75 -82.972656 283.625 -96.359375 C 300.507812 -109.742188 308.953125 -128.117188 308.953125 -151.484375 Z M 308.953125 -437.5625 "/></g></g></g><g fill="#ffbd59" fill-opacity="1"><g transform="translate(2755.891202, 1425.720531)"><g><path d="M 21.359375 -361.296875 L 21.359375 -437.5625 L 380.734375 -437.5625 L 380.734375 -361.296875 L 246.765625 -361.296875 L 246.765625 0 L 155.328125 0 L 155.328125 -361.296875 Z M 21.359375 -361.296875 "/></g></g></g><g fill="#ffbd59" fill-opacity="1"><g transform="translate(3170.026393, 1425.720531)"><g><path d="M 38.03125 0 L 38.03125 -437.5625 L 130.546875 -437.5625 L 130.546875 -257.03125 L 318.34375 -257.03125 L 318.34375 -437.5625 L 410.640625 -437.5625 L 410.640625 0 L 318.34375 0 L 318.34375 -180.75 L 130.546875 -180.75 L 130.546875 0 Z M 38.03125 0 "/></g></g></g><g fill="#ffbd59" fill-opacity="1"><g transform="translate(3630.952335, 1425.720531)"><g><path d="M 38.03125 0 L 38.03125 -437.5625 L 327.75 -437.5625 L 327.75 -361.296875 L 130.546875 -361.296875 L 130.546875 -257.03125 L 308.515625 -257.03125 L 308.515625 -180.75 L 130.546875 -180.75 L 130.546875 0 Z M 38.03125 0 "/></g></g></g><g fill="#ffbd59" fill-opacity="1"><g transform="translate(3994.878139, 1425.720531)"><g><path d="M 440.125 -218.78125 C 440.125 -171.0625 431.113281 -130.46875 413.09375 -97 C 395.082031 -63.53125 370.617188 -38 339.703125 -20.40625 C 308.796875 -2.8125 273.972656 5.984375 235.234375 5.984375 C 196.347656 5.984375 161.453125 -2.84375 130.546875 -20.5 C 99.640625 -38.164062 75.210938 -63.769531 57.265625 -97.3125 C 39.316406 -130.863281 30.34375 -171.351562 30.34375 -218.78125 C 30.34375 -266.5 39.316406 -307.09375 57.265625 -340.5625 C 75.210938 -374.039062 99.640625 -399.570312 130.546875 -417.15625 C 161.453125 -434.75 196.347656 -443.546875 235.234375 -443.546875 C 273.972656 -443.546875 308.796875 -434.75 339.703125 -417.15625 C 370.617188 -399.570312 395.082031 -374.039062 413.09375 -340.5625 C 431.113281 -307.09375 440.125 -266.5 440.125 -218.78125 Z M 346.34375 -218.78125 C 346.34375 -265.21875 336.226562 -300.648438 316 -325.078125 C 295.769531 -349.503906 268.847656 -361.71875 235.234375 -361.71875 C 201.617188 -361.71875 174.695312 -349.503906 154.46875 -325.078125 C 134.25 -300.648438 124.140625 -265.21875 124.140625 -218.78125 C 124.140625 -172.488281 134.25 -137.09375 154.46875 -112.59375 C 174.695312 -88.09375 201.617188 -75.84375 235.234375 -75.84375 C 268.847656 -75.84375 295.769531 -88.09375 316 -112.59375 C 336.226562 -137.09375 346.34375 -172.488281 346.34375 -218.78125 Z M 346.34375 -218.78125 "/></g></g></g><g fill="#ffbd59" fill-opacity="1"><g transform="translate(4477.383433, 1425.720531)"><g><path d="M 124.78125 -437.5625 L 213.015625 -288.4375 L 216.4375 -288.4375 L 305.09375 -437.5625 L 409.578125 -437.5625 L 276.046875 -218.78125 L 412.578125 0 L 306.171875 0 L 216.4375 -149.34375 L 213.015625 -149.34375 L 123.28125 0 L 17.3125 0 L 154.265625 -218.78125 L 19.875 -437.5625 Z M 124.78125 -437.5625 "/></g></g></g><g fill="#ffde59" fill-opacity="1"><g transform="translate(1843.012868, 1710.194056)"><g><path d="M 9.359375 0 L 9.359375 -107.65625 L 52.46875 -107.65625 C 64.34375 -107.65625 73.265625 -105.070312 79.234375 -99.90625 C 85.210938 -94.738281 88.203125 -88.125 88.203125 -80.0625 C 88.203125 -73.71875 86.363281 -68.59375 82.6875 -64.6875 C 79.007812 -60.78125 74.367188 -58.195312 68.765625 -56.9375 L 68.765625 -55.875 C 72.859375 -55.695312 76.703125 -54.539062 80.296875 -52.40625 C 83.890625 -50.269531 86.804688 -47.289062 89.046875 -43.46875 C 91.296875 -39.65625 92.421875 -35.082031 92.421875 -29.75 C 92.421875 -24.039062 91.007812 -18.941406 88.1875 -14.453125 C 85.363281 -9.972656 81.195312 -6.441406 75.6875 -3.859375 C 70.1875 -1.285156 63.410156 0 55.359375 0 Z M 32.125 -18.609375 L 50.671875 -18.609375 C 57.054688 -18.609375 61.691406 -19.832031 64.578125 -22.28125 C 67.472656 -24.738281 68.921875 -27.984375 68.921875 -32.015625 C 68.921875 -36.460938 67.332031 -40.101562 64.15625 -42.9375 C 60.988281 -45.78125 56.671875 -47.203125 51.203125 -47.203125 L 32.125 -47.203125 Z M 32.125 -62.609375 L 49 -62.609375 C 53.65625 -62.609375 57.523438 -63.828125 60.609375 -66.265625 C 63.691406 -68.703125 65.234375 -72.039062 65.234375 -76.28125 C 65.234375 -80.164062 63.859375 -83.300781 61.109375 -85.6875 C 58.359375 -88.070312 54.457031 -89.265625 49.40625 -89.265625 L 32.125 -89.265625 Z M 32.125 -62.609375 "/></g></g></g><g fill="#ffde59" fill-opacity="1"><g transform="translate(1958.598675, 1710.194056)"><g><path d="M 3.046875 -107.65625 L 28.546875 -107.65625 L 53.09375 -61.296875 L 54.140625 -61.296875 L 78.6875 -107.65625 L 104.1875 -107.65625 L 64.921875 -38.0625 L 64.921875 0 L 42.3125 0 L 42.3125 -38.0625 Z M 3.046875 -107.65625 "/></g></g></g><g fill="#ffde59" fill-opacity="1"><g transform="translate(2083.593481, 1710.194056)"><g/></g></g><g fill="#ffde59" fill-opacity="1"><g transform="translate(2135.681674, 1710.194056)"><g><path d="M 9.359375 0 L 9.359375 -107.65625 L 51.828125 -107.65625 C 59.992188 -107.65625 66.953125 -106.101562 72.703125 -103 C 78.453125 -99.90625 82.84375 -95.613281 85.875 -90.125 C 88.90625 -84.644531 90.421875 -78.328125 90.421875 -71.171875 C 90.421875 -64.023438 88.878906 -57.726562 85.796875 -52.28125 C 82.710938 -46.832031 78.25 -42.570312 72.40625 -39.5 C 66.570312 -36.4375 59.519531 -34.90625 51.25 -34.90625 L 32.125 -34.90625 L 32.125 0 Z M 32.125 -53.140625 L 47.578125 -53.140625 C 54.097656 -53.140625 58.957031 -54.8125 62.15625 -58.15625 C 65.363281 -61.507812 66.96875 -65.847656 66.96875 -71.171875 C 66.96875 -76.535156 65.363281 -80.851562 62.15625 -84.125 C 58.957031 -87.40625 54.0625 -89.046875 47.46875 -89.046875 L 32.125 -89.046875 Z M 32.125 -53.140625 "/></g></g></g><g fill="#ffde59" fill-opacity="1"><g transform="translate(2249.322587, 1710.194056)"><g><path d="M 76.015625 -107.65625 L 98.625 -107.65625 L 98.625 -36.484375 C 98.625 -28.347656 96.710938 -21.453125 92.890625 -15.796875 C 89.066406 -10.140625 83.800781 -5.835938 77.09375 -2.890625 C 70.382812 0.0546875 62.679688 1.53125 53.984375 1.53125 C 45.296875 1.53125 37.585938 0.0546875 30.859375 -2.890625 C 24.128906 -5.835938 18.863281 -10.140625 15.0625 -15.796875 C 11.257812 -21.453125 9.359375 -28.347656 9.359375 -36.484375 L 9.359375 -107.65625 L 32.125 -107.65625 L 32.125 -37.265625 C 32.125 -31.523438 34.195312 -27.003906 38.34375 -23.703125 C 42.5 -20.410156 47.710938 -18.765625 53.984375 -18.765625 C 60.359375 -18.765625 65.625 -20.410156 69.78125 -23.703125 C 73.9375 -27.003906 76.015625 -31.523438 76.015625 -37.265625 Z M 76.015625 -107.65625 "/></g></g></g><g fill="#ffde59" fill-opacity="1"><g transform="translate(2375.053295, 1710.194056)"><g><path d="M 9.359375 0 L 9.359375 -107.65625 L 51.828125 -107.65625 C 64.054688 -107.65625 73.546875 -104.46875 80.296875 -98.09375 C 87.046875 -91.71875 90.421875 -83.179688 90.421875 -72.484375 C 90.421875 -65.128906 88.78125 -58.835938 85.5 -53.609375 C 82.226562 -48.390625 77.523438 -44.46875 71.390625 -41.84375 L 94.25 0 L 69.125 0 L 48.734375 -38.171875 L 32.125 -38.171875 L 32.125 0 Z M 32.125 -56.453125 L 47.578125 -56.453125 C 60.503906 -56.453125 66.96875 -61.796875 66.96875 -72.484375 C 66.96875 -83.523438 60.46875 -89.046875 47.46875 -89.046875 L 32.125 -89.046875 Z M 32.125 -56.453125 "/></g></g></g><g fill="#ffde59" fill-opacity="1"><g transform="translate(2489.955753, 1710.194056)"><g><path d="M 108.296875 -53.828125 C 108.296875 -42.085938 106.078125 -32.097656 101.640625 -23.859375 C 97.203125 -15.628906 91.179688 -9.347656 83.578125 -5.015625 C 75.972656 -0.691406 67.40625 1.46875 57.875 1.46875 C 48.3125 1.46875 39.726562 -0.703125 32.125 -5.046875 C 24.519531 -9.390625 18.507812 -15.6875 14.09375 -23.9375 C 9.675781 -32.195312 7.46875 -42.160156 7.46875 -53.828125 C 7.46875 -65.566406 9.675781 -75.550781 14.09375 -83.78125 C 18.507812 -92.019531 24.519531 -98.300781 32.125 -102.625 C 39.726562 -106.957031 48.3125 -109.125 57.875 -109.125 C 67.40625 -109.125 75.972656 -106.957031 83.578125 -102.625 C 91.179688 -98.300781 97.203125 -92.019531 101.640625 -83.78125 C 106.078125 -75.550781 108.296875 -65.566406 108.296875 -53.828125 Z M 85.21875 -53.828125 C 85.21875 -65.253906 82.726562 -73.972656 77.75 -79.984375 C 72.769531 -85.992188 66.144531 -89 57.875 -89 C 49.601562 -89 42.976562 -85.992188 38 -79.984375 C 33.03125 -73.972656 30.546875 -65.253906 30.546875 -53.828125 C 30.546875 -42.441406 33.03125 -33.734375 38 -27.703125 C 42.976562 -21.671875 49.601562 -18.65625 57.875 -18.65625 C 66.144531 -18.65625 72.769531 -21.671875 77.75 -27.703125 C 82.726562 -33.734375 85.21875 -42.441406 85.21875 -53.828125 Z M 85.21875 -53.828125 "/></g></g></g><g fill="#ffde59" fill-opacity="1"><g transform="translate(2623.465949, 1710.194056)"><g><path d="M 5.25 -88.890625 L 5.25 -107.65625 L 93.671875 -107.65625 L 93.671875 -88.890625 L 60.71875 -88.890625 L 60.71875 0 L 38.21875 0 L 38.21875 -88.890625 Z M 5.25 -88.890625 "/></g></g></g><g fill="#ffde59" fill-opacity="1"><g transform="translate(2740.155605, 1710.194056)"><g><path d="M 108.296875 -53.828125 C 108.296875 -42.085938 106.078125 -32.097656 101.640625 -23.859375 C 97.203125 -15.628906 91.179688 -9.347656 83.578125 -5.015625 C 75.972656 -0.691406 67.40625 1.46875 57.875 1.46875 C 48.3125 1.46875 39.726562 -0.703125 32.125 -5.046875 C 24.519531 -9.390625 18.507812 -15.6875 14.09375 -23.9375 C 9.675781 -32.195312 7.46875 -42.160156 7.46875 -53.828125 C 7.46875 -65.566406 9.675781 -75.550781 14.09375 -83.78125 C 18.507812 -92.019531 24.519531 -98.300781 32.125 -102.625 C 39.726562 -106.957031 48.3125 -109.125 57.875 -109.125 C 67.40625 -109.125 75.972656 -106.957031 83.578125 -102.625 C 91.179688 -98.300781 97.203125 -92.019531 101.640625 -83.78125 C 106.078125 -75.550781 108.296875 -65.566406 108.296875 -53.828125 Z M 85.21875 -53.828125 C 85.21875 -65.253906 82.726562 -73.972656 77.75 -79.984375 C 72.769531 -85.992188 66.144531 -89 57.875 -89 C 49.601562 -89 42.976562 -85.992188 38 -79.984375 C 33.03125 -73.972656 30.546875 -65.253906 30.546875 -53.828125 C 30.546875 -42.441406 33.03125 -33.734375 38 -27.703125 C 42.976562 -21.671875 49.601562 -18.65625 57.875 -18.65625 C 66.144531 -18.65625 72.769531 -21.671875 77.75 -27.703125 C 82.726562 -33.734375 85.21875 -42.441406 85.21875 -53.828125 Z M 85.21875 -53.828125 "/></g></g></g></svg>